<mxfile host="Electron" modified="2024-09-26T00:57:15.501Z" agent="Mozilla/5.0 (Windows NT 10.0; Win64; x64) AppleWebKit/537.36 (KHTML, like Gecko) draw.io/24.6.1 Chrome/124.0.6367.207 Electron/30.0.6 Safari/537.36" etag="80Ax6y7GuqAkM2uobz7F" version="24.6.1" type="device" pages="2">
  <diagram name="Gantt" id="cDXEtXgJYY21AvheUejl">
    <mxGraphModel dx="1434" dy="844" grid="1" gridSize="10" guides="1" tooltips="1" connect="1" arrows="1" fold="1" page="1" pageScale="1" pageWidth="1169" pageHeight="827" math="0" shadow="0">
      <root>
        <mxCell id="0" />
        <mxCell id="1" parent="0" />
        <mxCell id="faWJ3gw_STRFVv12eE-t-1" value="" style="shape=image;verticalLabelPosition=bottom;labelBackgroundColor=default;verticalAlign=top;aspect=fixed;imageAspect=0;image=data:image/png,iVBORw0KGgoAAAANSUhEUgAAAdwAAAEfCAYAAADr33fvAAAAAXNSR0IArs4c6QAAAARnQU1BAACxjwv8YQUAAAAJcEhZcwAADsMAAA7DAcdvqGQAACVWSURBVHhe7d1PbBXX2cfxIXsKtrOKqryV7VaqGskkGIgiiJRK1I7Jgi5SG6mLVEQNdlCrphJOIFWlhhJMQytFaoxTkJo2ie0kVViAYwepSGChBkiDpVZZBFsVCzaxMSFryDu/h3ku42Euvva9nmvf+X6k4Zw7M/fvPJ5nzpkzw6pvQgEAAFhS90UlAABYQiRcAAAyQMIFACADJFwAADJw16Cp++67L2AcFQAA5Unm0tSEe/PmzWDVqlXRHNQibd9bt26xnVGzFNs0HlAtafFHlzIAABkg4QIAkAESLgAAGSDhAgCQARIuAAAZIOECAJABEi4AABkg4QIAkAESbpnq6+vtAudLly5FcxZvYmLCXkuviXyo9DYfGBiw1+vq6ormAMvH+Ph4Id5nZmaiuflR9YQ7NTVlG8An7YAqacOGDfa6+/btK/muMyMjI3bHLQXF5ORkNDfd7OyslV9//bWV5fDX8NdEaYaGhgrxU+mDFcWCv65itVSKNz1P8XevuKv0Nv/qq6+svH79upVYeeLxHJ/a29vtgGq5Jir9fejvRJ9VfzdpnnnmGSvffvvtoKGhwep5UvWE+8EHH0S12957770F345NSVoJUhu60gkby99f//rXqHY7cRX7Y78X7cj8IAuopitXrkS1ucbGxoJdu3YFmzZtWtDB33KhvzE1YAYHB4OOjo5obr5UPeG++eabVu7du9fK4eFhKxci3rpMtjQvXLhgCfz3v/+9JeRSKBh0n+Fr164FTU1N0VwsR9rxaEdUV1cXdHd327wTJ05YuRBqGSpOki1NxYLmKxYaGxujufNTvOl5ir9S4w5IUgxpUqLq6+uzear39PRYfTnR34f+TvR50xLqc889Z8vyfLqjqglXrVEFj5LaCy+8YPP0OK2FonW1obTz0qS6drY6anr88cdtQ8qWLVtsuc4ViD9H62lesZawd4VoHW8xa56/ruhzNTc323oq0z6nunv0x+Bd2b7uoUOHojXu0Dx/X3UX/fe//42WoFSnTp2yUtv5qaeesnp/f39qt5u2l28X/e7q9tV6em5vb2+01u2bjmsSxYKvL9pm/jgeG76eP0/xprpeO75eKdvcY91jTZM+dzLePNZ8HdW9Szkp/t399fxvxOmzxeNbLREsD0pme/bsKSRdHWT6Psz3cSrjkvs6P3+q9TwOPY5LjTlJxoli3Xls+3uKv7YvU6nH8Va675s1X+8Zf311sdeM8MeeI/yS34Stu+jR0gpbtdoTWSmtra32OGypzPkMly5dsvnJSesdOXLEPnNy2dmzZ+25bW1t9jgMVHscbuw5j+XkyZOF501PT9tz/TX9c8TXSZvOnDlj6+m5acs16bO6cGefuo5PS03vkdV2XkoeM9o+2nb++4XJIlrjNv32viw+ab3Ozs7UZRLfnqJY9NjwbS4ey/o8ovjSY8Wf/86lbnN/btqk93fhDjF1HU16X6fvmPY3osn/Toq950qOEX3+lSi+LZIU474tfR/m+7j4Nhdfz7exx3JdXZ2VPmkblxpzxf5WwoaSLffH/p56ru9zk5M+hz9P6xeLUU3+eiuJPndSVVu43n38k5/8xMpnn33WyuQRzauvvmqlWsJqAYefOwh3oDbv5z//eRDu+OxoSMINY8s3b95sj5N0BCXvv/++leJdkGEwFT2R//rrr1vpnyEMfFs/6YEHHrDPFgaafQ5Nvt6HH35opRw4cMBKLdNraf1wZ23zUBodIV+8eNG6k9WFpW3nv/Xx48ftt3cvvfSSlf57a/IuaMVbuMOxuvh2S9PS0lI4zTA6OlpYz2PZYzhNqdv8scces9alx7rW9fdUy0bUItB3l4MHD9p64UGH/RZJavlquVr+/nr+O7377rtW/vOf/7RSp3a0jt5bLRwsL5UYaKTTJh6D2s7ad5YSc2qpepx7zGn9e+23tJ6fmvPX1j5a9DmOHTtm9bj434fH87lz56xc8cIfYA4dZWRxVOstxnBDRHO+saMdzdMUJsFobriFonnxFmJc/OgoeSSUbOHqfX1dvZ/4EZ+3iuKv57+F6pqSn8Hnx1s7eg9/3/jkR6Dx19cRoNN8X3ep6T1WcutFvFWpng6nbei/4Zdffmnz4r9r/PeOK9aqSNsm3lJV7Oo31Gv6Oh5T/nra5lpnodtcz/fWe3zyOPbXV+zGt2P8fSX++mmTr6ff0OepXux3Wkn0XVYi34bFPr/HkceC72t8WzpfTzEg8VgIE5rNi9PrLSbm4vw5/p7+GcKDPXvswqRq8+Nx6uvGX9u/W/xvfKXQ506qWgvXW5U66gl/aJv8iEp0tB5+vujRbT/4wQ+i2uKpJeRHTTr/p6M2HyizdetWK+9lvs+g1tK2bdsKR4XzUYsJi+NH22q5eQzt2LHD5omf342rxO/99NNP23spdhU///rXv2y+jvRLGVg132d4/vnn7Zyyt2DvZePGjVFtcdauXWvlK6+8EoQ7N6vr91y3bp31BiX/BlFd8bEJa9asiWoLl2wpL3XMJfebjzzySFQrzUoclZ2magl3vhPhaQNfKjWoyLuVT58+bZchiboxSumume8zvPXWW1Z6t4h2WOGRoc1LEx9cgNLpd1PCu5c//vGPdyWMSvze8W5lJdujR49a/V7dyXHzfQbFvihu9Pk1eTJMOn/+fFSb3+XLlwuv55P/HSr21UUetmwLXe06oJnv7xTZUhestps8+uijVq5fv97KcnjMeVexpkrEnEvuN//9739HtXypSsLVKDRvVXpS8kl/8Go9iLdQ/BzBH/7wh8KRjkbG+bmpuBs3bliiTibrOLVARTsUbyVt377dymLin8Ff3xN3MdqJ6fPGzxfL97///ah25/y0dsK/+tWvrI75+W+q7RKPH01+fl9H6/r9k7+3bz+NUo6PsHRaNt8RtQ6o5LXXXiu0Cu7VQ7KYbe4tGJ2vTe7kHnroIfs70d+Rfwf9XWmHGRd/38OHD9vfm+i9Fb/+XNWVXHUwodaun78tdk0osqV41OhgH02vZOg9JR4nihFtV8WvenqS+8ZSzBdzopjTZxF9Lo22L3YQ6ftN/Z3435Re2/e7P/7xj63MjXCjzBH+ERftn68U779Xmaa5uXnOcj/fm5y03D9rciScn0PwcwB+HsL5eVuf4uc00s4nxM8Nxid/HT+H6+c50iZ9FhceLNy1PP6ZlpreY6m381Ly7Z12Xl/nUf13DI/cbZ6f701O/nyds/Rt7pPEz3vFJdcPdyzRkts8DrTN/XcudZuHO7A568SneBz730l88teLx1qx767Jv7//nSSnsFVsy1ciff6V6F77EE2KteT+Km09jwXfFxaLZSk15vTeaev4OX9/7O8ZHzOTnOLfQ+sn97nicRmP55VCnzvprjn60ku9I/Yf3AcpJcUvn3DacPGNrWTrA1REr6VBLFqm0pf5BkvumOM7oWTi942vgI3/Fgo8D2J9Fq2n5+px8hKR+Hp6b9XjQaNAiw9U8e/jz1tqeo+VmnDjf5zxGIjzWNFv7t9T289jRL+ztlN8x6W489/ft5Xey9dPil+Wk4wv32nGDwpL3eZaL2xxzlnP4zW+89NOzneU/n388yZ3UPp88b8f1eN/f3otj2VfHh+4uBLpe6xExQ7utU21HeMx6/QcjyPfdr49PRneK5ZLjTmPYX8v/T3FY9+f7+8p8f2kP0evEf8e/jet143vl/x5Klcafe6kVfonXFCgi49v3rxZ6NZFbdL2DQOb7YyapdhO7N6AzKTFX1WvwwUAIC9IuAAAZICECwBABki4AABkgIQLAEAGSLgAAGSAhAsAQAZIuAAAZICECwBABki4AABkgIQLAEAGSLhAxvRf4ek+q2n/NSCA2kXCBTJ2/fp1K7/66isrAeQDCReoQfX19bSigWWGhAvUoNnZWStpRQPLBwkXK8ahQ4es1XbkyBGrNzc322OV4+Pj0VqB1TVf50q1nlp7mtzExEThPKo/P60lmHyP5Drx5f5+U1NT0dLb9F5PPvmkLddn0HOKme/1tFzz9TlU91bshg0b7H1Epea53t5ee9zX1xfNKe37j4yM2Otqud5n37590RIAi6b/gD4u/AOb8z/uozZp06+07RwmDfvcdXV1VsYnzZucnLT1zp49m7qeXLp0KfX5mg4ePGjrSGdnZ+o6/h49PT2py/Xa09PTto7WLfZemvR9XHd3d+o68dfz7582+Xr6fmnL/btpeZhAU9fxz6PfT/uB5HLNX0n0mYFqSYs/WrhYcdRd2t/fr2gOwiRQmPfBBx9Y3WlemDiDL7/8MgiTn8179dVXbX6Y4IIwQdlreOvvL3/5iz1WC3B4eNjmaZnm6fmtra02T8v1/mGSC86cOVNY3tTUZK996tQpW0+fR4/F1/P3iiv19eL8cw0ODlorVOt9/vnnQUtLi813vp5auhIm3uDatWup3//NN9+08ty5czZf3zc8KLP1tD6AMoV/WHPQws0HbfqV2sJta2ub89nDxFCYL97C1RQmW5vnfH6xSa/r76NWYxpfXmzSctHn0WO1luOf1+f7eqW+nq/n39N5azRMvtGcO9/Tn+vSWq7xSfQ6vp7e6+TJkzZ/pfHvA1RDWvzRwsWK19DQENXudq9lSWphxm3cuDGqLcyaNWui2m0PP/ywtUIXK/l6xVy5ciWqLY5/f53f3bt3r9XHxsaCbdu22fnc5PlpAAtDwsWKNzMzY+XatWutLIW6YsMDzjmTulrjifH8+fNRLZ26fMOW612v89xzz0Vr3PbZZ5/Z/PmU+nqVUOz7u/3791u3dthCtkR88eLF4LXXXouWAlgMEi5WHLW6fFTt0NCQJQN54oknrLwXPw97+PDhQotNpUb9qmWnxPPQQw/ZfJ0X9VHFWqe9vd3Ot2q5ErMSUnx0r4/s1Tqyfv16K3U+2Ofp9fT54/z95nu9xfDLgvy7zvf9RXVNalnv2bOnMN/XB7BI4Q5mDp27iZ9vQm3Spl9p2/le5zp1vtVH88bP4Sa/o85Hxp8Xn+LnWv28cHLSKF8JE2Hqck2+TphAU5frs6qMn18t9n6a/PXmO4cbf73kKGsfpazv7+snJz1Hiv3O8XPEK4E+M1AtafFHCxcrTphwCl2d/vj06dN3na/15XEdHR1BmHRs9LJTV65e789//nOhS3l0dNRG5vpraB1d/6tRwPLRRx/ZeU7Nd3pNjZr2dRobG+29dJ2r+GtopHSS3m++13PJrnP/jPFzvS+99FKhNavl3orW9z9x4kTR7y87d+6867trubd0ASzOKmXdqG7uu+++4ObNm2UN8sDyp+2r84UraTurm1OXtyjBKuERo7gXxUdi9wZkJi3+aOECAJABEi5WDHWZ6qhxIaORAWC5oEs5p7R9V1qXMrAQaV16QFbS4o8WLgAAGSDhAgCQARIuAAAZSD2Hy3kPAADKk8ylDJrKKQZNodYxaArVxKApAACqhIQLAEAGSLgAAGSAhAsAQAZIuAAAZICECwBABki4AABkgIQLAEAGSLgAAGQg9wm3p6fH7giiqaurK5oLAPkzNTVl+8Tm5uY5+8WJiYloDZQj17d2nJmZCb773e8Gs7Oz0ZwgmJ6eDhoaGqJHtUvbl1s7opYptrm148Jof3j58uXo0R11dXXBF198kYt9Y6WkxV+uW7inTp2yZNvZ2Rk0NTUV5gFAXg0ODlrDQ5P2jaL95Oeff251LF6uE+7x48et3L59eyGwDh8+bCUA5I1asepCVktW0yOPPBItQSXktktZ3cn333+/1XUk98knnwTbtm2zx5OTk0FjY6PVaxVdyqh1dCmXR+dz1RC5ePGi9QCmdTWjOLqUY7zrWAGlI7mOjg47TyF0KwPIKyUKTUqySratra3BP/7xj2gpypHbhOtdx+pOdj5K+ejRoxwZY9E0otN3Wj719fUFAwMDd80fHx+PngUsT0q6vb291iuI8uQy4aqrREEkO3bsKOz8+vv7bZ6WaR0AyBs1NjTpVJsOFGVsbCx4/vnnrY7Fy+U5XLU0du3aFT1Kt3fv3mD//v01+zvoe3EOF7VMsU1PVfl8H9HW1haMjo5aHfNLi79ctnCPHTtmpZKqfpD45KOVh4eHrQSAPNCpkI0bNwYjIyPRnNuNE7d27dqohsXKXQtXQfXwww9bcr106VLQ0tISLbltaGjIupnls88+C9atW2f1WqPtSwsXtSythYHidBpNd5hK+800oPT06dN37S9RHC3ckM5F6EfQCLy04Nm6dWtUu70uAOSBLoU8c+ZMoZdPtJ/s7u62cS0k2/Ll+taOeUYLF7WOFi6qiRYuAABVQsIFACADJFwAADJAwgUAIAMkXAAAMkDCBQAgA6mXBTGUHgCA8iRzKdfh5hTX4aLWcR0uqonrcAEAqBISLgAAGSDhAgCQARIuAAAZIOECAJABEi4AABkg4QIAkAESLgAAGSDhAgCQgdwm3ObmZrsTSHzasGFDcOjQoWgNoDKGhobsDm6Ksfr6+mgusDxon6e4VHz29fVFc+8YHx8Purq6Cuuo7OnpCaanp6M1UKrcJtzJycmodsfFixeD3t7eYN++fdwSDhXz1ltvFeJpdnY2GBkZsTpQTUqkanhon6e4TDM1NRVs2bIlGB4eLqyjsr+/P/jpT39qj1G63Hcp64hOO0MdrbW2tto8BRNQCdphjY2NBXV1dUF3d7fNO3HihJVANZ07d84S7pkzZ6zlmubrr7+2/eLJkydtP6mGip4jimssDOdwIw0NDcHTTz9t9WJHe8BCnTp1ykp1yT311FNW1wHdzMyM1YFq2bNnTzA6Omot2GJaWlqCCxcuBB0dHfa4sbGxkHCxcCTciHaA77//vtW9JQKU6+jRo9Yy2LZtW7Bp06Zo7p1EDKwk6oY+f/681dlPLlzuE67OX6g75f7777dzuOo+eeWVV4p2sQClUneyYkrdyWohqBels7PTlh0/ftxKYLlTktX+UJNaw9euXbM4/t3vfhetgVLRwk3QDrK9vZ0ReCjbsWPHrFR3stu+fbuVGoRCtzJWKsXvn/70p+gRSsWgqWjQlCYNDBAlXQWT5gGLpZ2S6JytXxa0Y8cOmyd0K2Ml2Lx5c2EfqUFT3ktz4MCBYGBgwOooDS3cGHX7tbW1Wf3TTz+1EliMiYmJ1EvP4g4fPhzVgJVBg6Z2795dOOX21VdfWYnSkHBj4gMC1q9fbyWwGO+9956VGhNw69atQgtB05EjR2yZelJ0nhdYrtSC1SkRHUCKToO8++67FseyZs0aK1Gi8IebIzxy+SbcQUSPape+erGprq7um8uXL0dr1iZ9zzxs52pRDOk3DpNrNOeOsOVbiLW05agM/b4orq+vrxCHyamzs9PWGRwcTF2uKTyY/GZ6etrWw930GyXltoXb1NQU1e7QPA11V8sjbTlQCvWU+LXcW7dutTJO3XJ+k5UPP/zQSmA5Uus2TLqFeBXVNfZF1/Bq5D1Kt0pZN6obDe64efMml8XUOG1fdXWynVGrFNuJ3RuQmbT44xwuAAAZIOECAJABEi4AABkg4QIAkAESLgAAGSDhAgCQARIuAAAZSL0Ol2vXAAAoTzKXcuOLnOLGF6h13PgC1cSNLwAAqBISLgAAGSDhAgCQARIuAAAZIOECAJABEi4AABkg4QIAkAESLgAAGSDhAgCQgdwn3JGRkaCrq8vuCqKpubk52LdvXzAzMxOtAZRnaGjI7uCm+Kqvr4/mAsvLxMREIU7Tpvb29mhNLFauE25PT0+wbdu2YHh4OJoTBJOTk8GBAweCo0ePRnOA8rz11luFW7zNzs7aQR6A/MltwlWro7+/3+qdnZ2WaLVTVNnd3W1HdEC5pqamgrGxsaCurs7iSk6cOGElsJy0tLTY/dW1H/RpenraYlfWr19vJRYvt/95gbqOlVybmpqCTz75JGhoaIiW5IO2L/95wdIbGBiwRLtr167gqaeesh4V0Y4sbzGXNcV2YveGBTp06FDQ29trde0vGxsbrY75pcVfLlu4anUoeEStW3Z8WCo6NaE/OiXaTZs2RXOD4NSpU1ENWL4OHjxopfaTJNvy5TLhXr16NaoFwZo1a6IaUFk6sLt48aJ1yXV0dNiBnXZccvz4cSuB5Uqn3TTmQHbv3m0lypP7UcrAUjl27JiVGgXvtm/fbqUG6jESHsvZyy+/bKVOu23evNnqKE8uE+7q1aujGrB0fPS7Buf55RY7duyweUK3Mpar8fHxwmm3/fv3W4ny5XbQlK6HVHeJjt4uX74czc0PbV8GTS0dXdO4bt266FG61tbW4MKFC9EjVFraoBWURtfc+uj6L774gnEui5AWf7ntUn7xxRet1FGcuvx0vk1UamSeJmCx3nvvPSuVVJOXWhw5csSW6fyuxx2wXOhgUclWNMKeZFs5uU24O3futJ2hqOtPLV0dkajUMHiOjFEOv8b72WefvasXYevWrVGNbmUsP7qUzWk/icrJbcLVUZu68/r6+gqJV5Rw9+7daztKYDF0/stHd8aTq9PlFR5zH374oZXAcqCBfPEbAnEpUGXl9hxu3mn7cg4XtUyxTU8VqiUt/rgsCACADJBwAQDIAAkXAIAMkHABAMgACRcAgAyQcAEAyEDqZUEMpQcAoDzJXMp1uDnFdbiodVyHi2riOlwAAKqEhAsAQAZIuAAAZICECwBABki4AABkgIQLAEAGSLgAAGSAhAsAQAZIuAAAZCCXCff555+3u4DEp/r6+qCrqysYGhqK1gIqY2JiIujp6bEY81jTY80Hqu3QoUOF2Ozr64vm3pEWv/v27QtmZmaiNVAy3doxLvxBv7l161b0qDa1t7frfltFp7a2tpr/DfQ9a/07LgeDg4P2N5WMMU2KMywd/cYo7uzZs980NTXNicmDBw9GS2+bnJycszw+Eb/3pt8oKdddymHA2L0uNV26dCno7Oy0+WNjY3bUB5Rjamoq2LFjh8VXa2trcObMGatPT09bS2Lt2rXRmkD2zp07FzQ3N1tcquWa5uuvv7bYDZOzxa5KX1f7SSxMLv/zgieffDIYHR21hKsyLmz9WiDV1dVZl0mt/g76XvznBUtL3XD9/f1W/+yzz4J169ZZHdlQbCd2byjC/5e4sIUb9Pb2RnPT+f5T+H2LS4s/Bk0l/OIXv7BydnY2GB8ftzqwGB9//LGVaiG0tLRYHVjpzp8/b6UaJVgYEm7Ct771ragGlGdyctLKhoYGK4GVbmBgwBojMl9LGHcj4QIA5qXRyi+99JJ1k6rXZs+ePdESlIqEm3Djxo2oFgSrV6+OasDC0eWGWqFk+8QTT1jrVsn2o48+YvzHIpBwE15//XUrtbPkvBvK8aMf/chKDcLTiGVgJUpLtvfff3+0FAtBwo0oqHTjCx/qrvMTHMGhHLt3745qgcWWLqkQjX7XDVY0D1jOFKvPPvtsIdlqdDLJtgzfJIRJJvc3vuju7ubGF6gIxVIyvnzixgFLS78xiuvr67srJn3q7Oy0dY4cOZK63Ce9BtLp90nKZQu3sbExqt2hLmTd+GJwcDB44403aN2iIhRLJ0+etGu+nWItTMSpt9EDlpM1a9ZENVRCLm98AW58gdqn2E7s3oDMpMUf53ABAMgACRcAgAyQcAEAyAAJFwCADJBwAQDIAAkXAIAMkHABAMgACRcAgAyk3viCi8UBAChPMpdyp6mc4k5TqHXcaQrVxJ2mAACoEhIuAAAZIOECAJABEi4AABkg4QIAkAESLgAAGSDhAgCQARIuAAAZIOECAJCB3CbcoaEhuxNI2nTo0KFoLSDd1NSU3ZUtGTvt7e3ByMhItFZxxeJPzx8YGAhmZmaiNYHq6OrqKsSl6ihfbhPulStXohqwcFevXo1qc42NjQXbtm2bN+kWiz89f9euXcGmTZssqQPVoAPC4eHh6FEQXL9+PaqhHHQph3S/y/i0Z8+eaAkwv7Nnz1rcXLp0Kairq7N5f/vb36wshcfd5ORk0NfXZ/NU7+npsTqQJfWueOx1dnZaicog4QIV0tLSEmzcuNHqi2kRNDY22sGeJ121dicmJqwOZOU3v/lNMDs7G+zduzd45JFHormoBBIuUCFKjufPn7f6M888Y+Vi7Ny5086biZIukJXx8fGgv7/fempeeOGFaC4qhYQb8oEBmurr66O5QGm2bNlisbNu3TprGXR3d5c1yKShoSGqAdn62c9+ZuXbb79NHC4BEi5QYWohcP4VK41Gx2vsQFtbW9DR0RHNRSWRcEM+aEXTtWvXorlAaXzQ1PT0dOH8q5JuKZcHpYlfErRmzZqoBiyt48ePWxzrNIb3+PX29toyn8eYgvKQcIEKURdcfIT7f/7zn6i2MMeOHbMdnzz66KNWAktt7dq1UQ1LhYQLVJC65dxDDz1kpVoFuknGfOMDdN2tbrrirQp17WnkM5CFwcHBQk+fT95jo1jUY+KxPCTckHef+KQBLwouoBQ+aEqTblohra2thfNg6o5TPGlAVRp/blNTUyHZ6vnvvPOO1QHUhtwm3AcffDCqAQv3wAMPRLW5lCjVKhgdHY3mBMGNGzesVCvBFYs/rXPkyBF7PqNEUW0+hoDu5spYFR55z2nKqevr5s2bdsSN2qXte+vWLbbzEtMAqO9973vWwr1w4YK1YpENxTY9VaiWtPijSxlYQqdOnbKu5L///e8kWyDnaOHmFC1c1DpauKgmWrgAAFQJCRcAgAyQcAEAyAAJFwCADJBwAQDIAAkXAIAMkHABAMgACRcAgAyQcAEAyAAJFwCADKTe2pHboQEAUJ5kLuVeyjnFvZRR67iXMqqJeykDAFAlJFwAADJAwgUAIAMkXAAAMkDCBQAgAyRcAAAyQMIFACADJFwAADJAwgUAIAO5TbhTU1N2J5C06dChQ9FawOIMDQ2lxlZ7e3swMDAQzMzMRGsC1aX9XX19vcVnX19fNHcurdPc3FyI466urmBycjJailLlNuFevXo1qgGVd+XKlag219jYWLBr165g06ZNdtAHVMv4+Lgl0d7e3mB2djaae7d9+/bZOvEEOzw8HGzYsIEDxwWiSzl09uxZu+elT3v27ImWAOXTPasVV9pheQtC9Z6eHqsD1XDu3DlLuGfOnLFWaxodFB44cMDqil3FsfaXWl9J+oMPPrBlKA0JF8hIY2OjHcx50lVrd2JiwupA1hSLo6OjwZYtW6I5dzt16lRUu72+bN68OWhtbbX66dOnrURpSLhAxnbu3BnVbiddYLnyUyNtbW1WOnUny/Xr161EaUi4IR3h+WAATTq3ASyVhoaGqAYsb59++mlUm+v//u//ohoWgoQLAEAGSLih5KApnaMAlkp8ZOeaNWuiGrD8aNxBmhs3bkQ1LAQJF8jYsWPHoloQPProo1ENWH6+853vWJkca/Dxxx9bWSwhIx0JF8iILrHQDQR0TaNoIEpLS4vVgeXosccei2qB3bBFRkZGgosXL1r98ccftxKlIeECS+y+++6zwXhNTU2FZKvLKt555x2rA9Wggz8fKKpTafLiiy/aY91JSnR6zUco64YtWrZt2zZbXzHs66E0uU24q1evjmpz60AlPPjgg1FtLu28jhw5Ytc/MloZK4EODLu7u4O6ujp7rFKPP/roI3uM0q0Kj1RuH9pEdDR+8+ZNO5JB7dL21R2Q2M6oVYrtxO4NyExa/NGlDABABki4AABkgIQLAEAGSLgAAGSAhAsAQAZIuAAAZCD1siCG0gMAUJ5kLuU63JziOlzUOq7DRTVxHS4AAFVCwgUAIAMkXAAAMkDCBQAgAyRcAAAyQMIFACADJFwAADJAwgUAIAMkXAAAMpDrhDs1NRX09PQEzc3NdlcQTap3dXUF4+Pj0VrAvcXjJzndi2Iv7TmauEMSsjYxMWF3GkyLR03t7e3Rmlis3CbcoaGhoKmpKejv7w8mJyejuYHVh4eHgy1btrDTQ0ni8bMQOuADkB+5TLgjIyPBjh07rN7a2hqcPHnSkqumS5cuBX19fUFdXZ0tB0qluPE48qkUbW1tdz1PLQogSy0tLXZ/9XgcTk9PF/aF69evtxKLl8uE+8tf/tJKJdvR0dGgo6PDHouCbs+ePcG1a9fY6QHItWPHjgWzs7NW37lzp5VYvNwlXHXjeRfgr3/966ChocHqAIC5Dh48aGVnZ2fQ2NhodSxe7hLu1atXo1oQfPvb37ZSgwXigwM0aSCMulSAUvX29s6JoYGBgWjJvY2Njc15nganEHuoNo1z8dbt7t27rUR5cjtoaj6LHQgDALXg5ZdftlKDSzdv3mx1lCd3CXf16tVRLQhu3Lhhpc7b+iABDXwBFiM5aOq5556LltxbctCUxhWopQtUiy6L9EbH/v37rUT5cpdwlVx91N1vf/tbKwEAd3iS1b5y69atVkf5ctmlfODAASsvXrxo58t0Dtf973//i2pA5eh8rm4qoJuqAMuZ9ocaVyDd3d0MLK2gXCZcdfUpkESBtW7dusKAFd0IA1iM5KApTX4wd/z4cesuvn79uj0Glqv4YD8uBaqs3A6aeuONN4KzZ8/acPf4TS40QEDJWMu0wwTmo5iZz8zMjJU//OEPrZS1a9fOKYFqU5x6o4NLgSpvVXjUPef6A3V73bx5k2RT47R9dVcZtvPS0wCUxx9/3O7Uc+HChWgulppiO7F7AzKTFn+5beECWRkcHLRWrK5rBJBftHBzihYuah0tXFQTLVwAAKqEhAsAQAZIuAAAZICECwBABki4AABkIHWUMiP7AAAoTzKX3pVwAQBA5dGlDABABki4AABkgIQLAEAGSLgAAGSAhAsAwJILgv8HpCPADSJu/PkAAAAASUVORK5CYII=;" vertex="1" parent="1">
          <mxGeometry x="20" y="30" width="476" height="287" as="geometry" />
        </mxCell>
        <mxCell id="faWJ3gw_STRFVv12eE-t-2" value="G" style="align=center;strokeColor=#CCCCCC;html=1;" vertex="1" parent="1">
          <mxGeometry x="140" y="430" width="110" height="20" as="geometry" />
        </mxCell>
        <mxCell id="faWJ3gw_STRFVv12eE-t-3" value="F" style="align=center;strokeColor=#CCCCCC;html=1;" vertex="1" parent="1">
          <mxGeometry x="140" y="450" width="110" height="20" as="geometry" />
        </mxCell>
        <mxCell id="faWJ3gw_STRFVv12eE-t-4" value="E" style="align=center;strokeColor=#CCCCCC;html=1;" vertex="1" parent="1">
          <mxGeometry x="140" y="470" width="110" height="20" as="geometry" />
        </mxCell>
        <mxCell id="faWJ3gw_STRFVv12eE-t-5" value="D" style="align=center;strokeColor=#CCCCCC;html=1;" vertex="1" parent="1">
          <mxGeometry x="140" y="490" width="110" height="20" as="geometry" />
        </mxCell>
        <mxCell id="faWJ3gw_STRFVv12eE-t-6" value="Task Name" style="strokeWidth=1;fontStyle=0;html=1;" vertex="1" parent="1">
          <mxGeometry x="140" y="410" width="110" height="20" as="geometry" />
        </mxCell>
        <mxCell id="faWJ3gw_STRFVv12eE-t-7" value="C" style="align=center;strokeColor=#CCCCCC;html=1;" vertex="1" parent="1">
          <mxGeometry x="140" y="510" width="110" height="20" as="geometry" />
        </mxCell>
        <mxCell id="faWJ3gw_STRFVv12eE-t-8" value="B" style="align=center;strokeColor=#CCCCCC;html=1;" vertex="1" parent="1">
          <mxGeometry x="140" y="530" width="110" height="20" as="geometry" />
        </mxCell>
        <mxCell id="faWJ3gw_STRFVv12eE-t-9" value="A" style="align=center;strokeColor=#CCCCCC;html=1;" vertex="1" parent="1">
          <mxGeometry x="140" y="550" width="110" height="20" as="geometry" />
        </mxCell>
        <mxCell id="faWJ3gw_STRFVv12eE-t-10" value="2" style="strokeWidth=1;fontStyle=0;html=1;container=0;align=right;" vertex="1" parent="1">
          <mxGeometry x="250" y="410" width="70" height="20" as="geometry" />
        </mxCell>
        <mxCell id="faWJ3gw_STRFVv12eE-t-11" value="4" style="strokeWidth=1;fontStyle=0;html=1;container=0;align=right;" vertex="1" parent="1">
          <mxGeometry x="320" y="410" width="70" height="20" as="geometry" />
        </mxCell>
        <mxCell id="faWJ3gw_STRFVv12eE-t-12" value="6" style="strokeWidth=1;fontStyle=0;html=1;container=0;align=right;" vertex="1" parent="1">
          <mxGeometry x="390" y="410" width="70" height="20" as="geometry" />
        </mxCell>
        <mxCell id="faWJ3gw_STRFVv12eE-t-13" value="8" style="strokeWidth=1;fontStyle=0;html=1;container=0;align=right;" vertex="1" parent="1">
          <mxGeometry x="460" y="410" width="70" height="20" as="geometry" />
        </mxCell>
        <mxCell id="faWJ3gw_STRFVv12eE-t-14" value="10" style="strokeWidth=1;fontStyle=0;html=1;container=0;align=right;" vertex="1" parent="1">
          <mxGeometry x="530" y="410" width="70" height="20" as="geometry" />
        </mxCell>
        <mxCell id="faWJ3gw_STRFVv12eE-t-15" value="12" style="strokeWidth=1;fontStyle=0;html=1;container=0;align=right;" vertex="1" parent="1">
          <mxGeometry x="600" y="410" width="70" height="20" as="geometry" />
        </mxCell>
        <mxCell id="faWJ3gw_STRFVv12eE-t-16" value="14" style="strokeWidth=1;fontStyle=0;html=1;container=0;align=right;" vertex="1" parent="1">
          <mxGeometry x="670" y="410" width="70" height="20" as="geometry" />
        </mxCell>
        <mxCell id="faWJ3gw_STRFVv12eE-t-17" value="16" style="strokeWidth=1;fontStyle=0;html=1;container=0;align=right;" vertex="1" parent="1">
          <mxGeometry x="740" y="410" width="70" height="20" as="geometry" />
        </mxCell>
        <mxCell id="faWJ3gw_STRFVv12eE-t-18" value="18" style="strokeWidth=1;fontStyle=0;html=1;container=0;align=right;" vertex="1" parent="1">
          <mxGeometry x="810" y="410" width="70" height="20" as="geometry" />
        </mxCell>
        <mxCell id="faWJ3gw_STRFVv12eE-t-19" value="20" style="strokeWidth=1;fontStyle=0;html=1;container=0;align=right;" vertex="1" parent="1">
          <mxGeometry x="880" y="410" width="70" height="20" as="geometry" />
        </mxCell>
        <mxCell id="faWJ3gw_STRFVv12eE-t-20" value="" style="align=left;strokeColor=#CCCCCC;html=1;container=0;" vertex="1" parent="1">
          <mxGeometry x="250" y="430" width="1400" height="20" as="geometry" />
        </mxCell>
        <mxCell id="faWJ3gw_STRFVv12eE-t-21" value="" style="align=left;strokeColor=#CCCCCC;html=1;container=0;" vertex="1" parent="1">
          <mxGeometry x="250" y="450" width="1400" height="20" as="geometry" />
        </mxCell>
        <mxCell id="faWJ3gw_STRFVv12eE-t-22" value="" style="align=left;strokeColor=#CCCCCC;html=1;container=0;" vertex="1" parent="1">
          <mxGeometry x="250" y="470" width="1400" height="20" as="geometry" />
        </mxCell>
        <mxCell id="faWJ3gw_STRFVv12eE-t-23" value="" style="align=left;strokeColor=#CCCCCC;html=1;container=0;" vertex="1" parent="1">
          <mxGeometry x="250" y="490" width="1400" height="20" as="geometry" />
        </mxCell>
        <mxCell id="faWJ3gw_STRFVv12eE-t-24" value="" style="align=left;strokeColor=#CCCCCC;html=1;container=0;" vertex="1" parent="1">
          <mxGeometry x="250" y="510" width="1400" height="20" as="geometry" />
        </mxCell>
        <mxCell id="faWJ3gw_STRFVv12eE-t-25" value="" style="align=left;strokeColor=#CCCCCC;html=1;container=0;" vertex="1" parent="1">
          <mxGeometry x="250" y="530" width="1400" height="20" as="geometry" />
        </mxCell>
        <mxCell id="faWJ3gw_STRFVv12eE-t-26" value="" style="whiteSpace=wrap;html=1;strokeWidth=2;fillColor=#CCCCCC;gradientColor=none;fontSize=14;align=center;strokeColor=#999999;container=0;" vertex="1" parent="1">
          <mxGeometry x="360" y="530" width="460" height="20" as="geometry" />
        </mxCell>
        <mxCell id="faWJ3gw_STRFVv12eE-t-27" value="" style="whiteSpace=wrap;html=1;strokeWidth=2;fillColor=#f8cecc;fontSize=14;align=center;strokeColor=#b85450;container=0;" vertex="1" parent="1">
          <mxGeometry x="360" y="510" width="250" height="20" as="geometry" />
        </mxCell>
        <mxCell id="faWJ3gw_STRFVv12eE-t-28" value="" style="whiteSpace=wrap;html=1;strokeWidth=2;fillColor=#f8cecc;fontSize=14;align=center;strokeColor=#b85450;container=0;" vertex="1" parent="1">
          <mxGeometry x="610" y="490" width="420" height="20" as="geometry" />
        </mxCell>
        <mxCell id="faWJ3gw_STRFVv12eE-t-29" value="" style="whiteSpace=wrap;html=1;strokeWidth=2;fillColor=#f8cecc;fontSize=14;align=center;strokeColor=#b85450;container=0;" vertex="1" parent="1">
          <mxGeometry x="1030" y="450" width="350" height="20" as="geometry" />
        </mxCell>
        <mxCell id="faWJ3gw_STRFVv12eE-t-30" value="" style="whiteSpace=wrap;html=1;strokeWidth=2;fillColor=#f8cecc;fontSize=14;align=center;strokeColor=#b85450;container=0;" vertex="1" parent="1">
          <mxGeometry x="1380" y="430" width="240" height="20" as="geometry" />
        </mxCell>
        <mxCell id="faWJ3gw_STRFVv12eE-t-31" value="" style="align=left;strokeColor=#CCCCCC;html=1;container=0;" vertex="1" parent="1">
          <mxGeometry x="250" y="550" width="1400" height="20" as="geometry" />
        </mxCell>
        <mxCell id="faWJ3gw_STRFVv12eE-t-32" value="" style="whiteSpace=wrap;html=1;strokeWidth=2;fillColor=#f8cecc;fontSize=14;align=center;strokeColor=#b85450;container=0;" vertex="1" parent="1">
          <mxGeometry x="250" y="550" width="110" height="20" as="geometry" />
        </mxCell>
        <mxCell id="faWJ3gw_STRFVv12eE-t-33" value="" style="whiteSpace=wrap;html=1;strokeWidth=2;fillColor=#CCCCCC;gradientColor=none;fontSize=14;align=center;strokeColor=#999999;container=0;" vertex="1" parent="1">
          <mxGeometry x="1030" y="470" width="140" height="20" as="geometry" />
        </mxCell>
        <mxCell id="faWJ3gw_STRFVv12eE-t-34" value="22" style="strokeWidth=1;fontStyle=0;html=1;container=0;align=right;" vertex="1" parent="1">
          <mxGeometry x="950" y="410" width="70" height="20" as="geometry" />
        </mxCell>
        <mxCell id="faWJ3gw_STRFVv12eE-t-35" value="24" style="strokeWidth=1;fontStyle=0;html=1;container=0;align=right;" vertex="1" parent="1">
          <mxGeometry x="1020" y="410" width="70" height="20" as="geometry" />
        </mxCell>
        <mxCell id="Lpf5uEPciBwKa3sNpz6a-1" value="26" style="strokeWidth=1;fontStyle=0;html=1;container=0;align=right;" vertex="1" parent="1">
          <mxGeometry x="1090" y="410" width="70" height="20" as="geometry" />
        </mxCell>
        <mxCell id="Lpf5uEPciBwKa3sNpz6a-2" value="28" style="strokeWidth=1;fontStyle=0;html=1;container=0;align=right;" vertex="1" parent="1">
          <mxGeometry x="1160" y="410" width="70" height="20" as="geometry" />
        </mxCell>
        <mxCell id="Lpf5uEPciBwKa3sNpz6a-3" value="30" style="strokeWidth=1;fontStyle=0;html=1;container=0;align=right;" vertex="1" parent="1">
          <mxGeometry x="1230" y="410" width="70" height="20" as="geometry" />
        </mxCell>
        <mxCell id="Lpf5uEPciBwKa3sNpz6a-4" value="32" style="strokeWidth=1;fontStyle=0;html=1;container=0;align=right;" vertex="1" parent="1">
          <mxGeometry x="1300" y="410" width="70" height="20" as="geometry" />
        </mxCell>
        <mxCell id="Lpf5uEPciBwKa3sNpz6a-5" value="34" style="strokeWidth=1;fontStyle=0;html=1;container=0;align=right;" vertex="1" parent="1">
          <mxGeometry x="1370" y="410" width="70" height="20" as="geometry" />
        </mxCell>
        <mxCell id="Lpf5uEPciBwKa3sNpz6a-6" value="36" style="strokeWidth=1;fontStyle=0;html=1;container=0;align=right;" vertex="1" parent="1">
          <mxGeometry x="1440" y="410" width="70" height="20" as="geometry" />
        </mxCell>
        <mxCell id="Lpf5uEPciBwKa3sNpz6a-7" value="38" style="strokeWidth=1;fontStyle=0;html=1;container=0;align=right;" vertex="1" parent="1">
          <mxGeometry x="1510" y="410" width="70" height="20" as="geometry" />
        </mxCell>
        <mxCell id="Lpf5uEPciBwKa3sNpz6a-8" value="40" style="strokeWidth=1;fontStyle=0;html=1;container=0;align=right;" vertex="1" parent="1">
          <mxGeometry x="1580" y="410" width="70" height="20" as="geometry" />
        </mxCell>
      </root>
    </mxGraphModel>
  </diagram>
  <diagram id="Uuz03uWRD2csmmyaQ7BK" name="Pert">
    <mxGraphModel dx="1434" dy="844" grid="1" gridSize="10" guides="1" tooltips="1" connect="1" arrows="1" fold="1" page="1" pageScale="1" pageWidth="1169" pageHeight="827" math="0" shadow="0">
      <root>
        <mxCell id="0" />
        <mxCell id="1" parent="0" />
        <mxCell id="jMTXG-PAdd99zwZk45q6-1" value="" style="shape=image;verticalLabelPosition=bottom;labelBackgroundColor=default;verticalAlign=top;aspect=fixed;imageAspect=0;image=data:image/png,iVBORw0KGgoAAAANSUhEUgAAAdwAAAEfCAYAAADr33fvAAAAAXNSR0IArs4c6QAAAARnQU1BAACxjwv8YQUAAAAJcEhZcwAADsMAAA7DAcdvqGQAACVWSURBVHhe7d1PbBXX2cfxIXsKtrOKqryV7VaqGskkGIgiiJRK1I7Jgi5SG6mLVEQNdlCrphJOIFWlhhJMQytFaoxTkJo2ie0kVViAYwepSGChBkiDpVZZBFsVCzaxMSFryDu/h3ku42Euvva9nmvf+X6k4Zw7M/fvPJ5nzpkzw6pvQgEAAFhS90UlAABYQiRcAAAyQMIFACADJFwAADJw16Cp++67L2AcFQAA5Unm0tSEe/PmzWDVqlXRHNQibd9bt26xnVGzFNs0HlAtafFHlzIAABkg4QIAkAESLgAAGSDhAgCQARIuAAAZIOECAJABEi4AABkg4QIAkAESbpnq6+vtAudLly5FcxZvYmLCXkuviXyo9DYfGBiw1+vq6ormAMvH+Ph4Id5nZmaiuflR9YQ7NTVlG8An7YAqacOGDfa6+/btK/muMyMjI3bHLQXF5ORkNDfd7OyslV9//bWV5fDX8NdEaYaGhgrxU+mDFcWCv65itVSKNz1P8XevuKv0Nv/qq6+svH79upVYeeLxHJ/a29vtgGq5Jir9fejvRJ9VfzdpnnnmGSvffvvtoKGhwep5UvWE+8EHH0S12957770F345NSVoJUhu60gkby99f//rXqHY7cRX7Y78X7cj8IAuopitXrkS1ucbGxoJdu3YFmzZtWtDB33KhvzE1YAYHB4OOjo5obr5UPeG++eabVu7du9fK4eFhKxci3rpMtjQvXLhgCfz3v/+9JeRSKBh0n+Fr164FTU1N0VwsR9rxaEdUV1cXdHd327wTJ05YuRBqGSpOki1NxYLmKxYaGxujufNTvOl5ir9S4w5IUgxpUqLq6+uzear39PRYfTnR34f+TvR50xLqc889Z8vyfLqjqglXrVEFj5LaCy+8YPP0OK2FonW1obTz0qS6drY6anr88cdtQ8qWLVtsuc4ViD9H62lesZawd4VoHW8xa56/ruhzNTc323oq0z6nunv0x+Bd2b7uoUOHojXu0Dx/X3UX/fe//42WoFSnTp2yUtv5qaeesnp/f39qt5u2l28X/e7q9tV6em5vb2+01u2bjmsSxYKvL9pm/jgeG76eP0/xprpeO75eKdvcY91jTZM+dzLePNZ8HdW9Szkp/t399fxvxOmzxeNbLREsD0pme/bsKSRdHWT6Psz3cSrjkvs6P3+q9TwOPY5LjTlJxoli3Xls+3uKv7YvU6nH8Va675s1X+8Zf311sdeM8MeeI/yS34Stu+jR0gpbtdoTWSmtra32OGypzPkMly5dsvnJSesdOXLEPnNy2dmzZ+25bW1t9jgMVHscbuw5j+XkyZOF501PT9tz/TX9c8TXSZvOnDlj6+m5acs16bO6cGefuo5PS03vkdV2XkoeM9o+2nb++4XJIlrjNv32viw+ab3Ozs7UZRLfnqJY9NjwbS4ey/o8ovjSY8Wf/86lbnN/btqk93fhDjF1HU16X6fvmPY3osn/Toq950qOEX3+lSi+LZIU474tfR/m+7j4Nhdfz7exx3JdXZ2VPmkblxpzxf5WwoaSLffH/p56ru9zk5M+hz9P6xeLUU3+eiuJPndSVVu43n38k5/8xMpnn33WyuQRzauvvmqlWsJqAYefOwh3oDbv5z//eRDu+OxoSMINY8s3b95sj5N0BCXvv/++leJdkGEwFT2R//rrr1vpnyEMfFs/6YEHHrDPFgaafQ5Nvt6HH35opRw4cMBKLdNraf1wZ23zUBodIV+8eNG6k9WFpW3nv/Xx48ftt3cvvfSSlf57a/IuaMVbuMOxuvh2S9PS0lI4zTA6OlpYz2PZYzhNqdv8scces9alx7rW9fdUy0bUItB3l4MHD9p64UGH/RZJavlquVr+/nr+O7377rtW/vOf/7RSp3a0jt5bLRwsL5UYaKTTJh6D2s7ad5YSc2qpepx7zGn9e+23tJ6fmvPX1j5a9DmOHTtm9bj434fH87lz56xc8cIfYA4dZWRxVOstxnBDRHO+saMdzdMUJsFobriFonnxFmJc/OgoeSSUbOHqfX1dvZ/4EZ+3iuKv57+F6pqSn8Hnx1s7eg9/3/jkR6Dx19cRoNN8X3ep6T1WcutFvFWpng6nbei/4Zdffmnz4r9r/PeOK9aqSNsm3lJV7Oo31Gv6Oh5T/nra5lpnodtcz/fWe3zyOPbXV+zGt2P8fSX++mmTr6ff0OepXux3Wkn0XVYi34bFPr/HkceC72t8WzpfTzEg8VgIE5rNi9PrLSbm4vw5/p7+GcKDPXvswqRq8+Nx6uvGX9u/W/xvfKXQ506qWgvXW5U66gl/aJv8iEp0tB5+vujRbT/4wQ+i2uKpJeRHTTr/p6M2HyizdetWK+9lvs+g1tK2bdsKR4XzUYsJi+NH22q5eQzt2LHD5omf342rxO/99NNP23spdhU///rXv2y+jvRLGVg132d4/vnn7Zyyt2DvZePGjVFtcdauXWvlK6+8EoQ7N6vr91y3bp31BiX/BlFd8bEJa9asiWoLl2wpL3XMJfebjzzySFQrzUoclZ2magl3vhPhaQNfKjWoyLuVT58+bZchiboxSumume8zvPXWW1Z6t4h2WOGRoc1LEx9cgNLpd1PCu5c//vGPdyWMSvze8W5lJdujR49a/V7dyXHzfQbFvihu9Pk1eTJMOn/+fFSb3+XLlwuv55P/HSr21UUetmwLXe06oJnv7xTZUhestps8+uijVq5fv97KcnjMeVexpkrEnEvuN//9739HtXypSsLVKDRvVXpS8kl/8Go9iLdQ/BzBH/7wh8KRjkbG+bmpuBs3bliiTibrOLVARTsUbyVt377dymLin8Ff3xN3MdqJ6fPGzxfL97///ah25/y0dsK/+tWvrI75+W+q7RKPH01+fl9H6/r9k7+3bz+NUo6PsHRaNt8RtQ6o5LXXXiu0Cu7VQ7KYbe4tGJ2vTe7kHnroIfs70d+Rfwf9XWmHGRd/38OHD9vfm+i9Fb/+XNWVXHUwodaun78tdk0osqV41OhgH02vZOg9JR4nihFtV8WvenqS+8ZSzBdzopjTZxF9Lo22L3YQ6ftN/Z3435Re2/e7P/7xj63MjXCjzBH+ERftn68U779Xmaa5uXnOcj/fm5y03D9rciScn0PwcwB+HsL5eVuf4uc00s4nxM8Nxid/HT+H6+c50iZ9FhceLNy1PP6ZlpreY6m381Ly7Z12Xl/nUf13DI/cbZ6f701O/nyds/Rt7pPEz3vFJdcPdyzRkts8DrTN/XcudZuHO7A568SneBz730l88teLx1qx767Jv7//nSSnsFVsy1ciff6V6F77EE2KteT+Km09jwXfFxaLZSk15vTeaev4OX9/7O8ZHzOTnOLfQ+sn97nicRmP55VCnzvprjn60ku9I/Yf3AcpJcUvn3DacPGNrWTrA1REr6VBLFqm0pf5BkvumOM7oWTi942vgI3/Fgo8D2J9Fq2n5+px8hKR+Hp6b9XjQaNAiw9U8e/jz1tqeo+VmnDjf5zxGIjzWNFv7t9T289jRL+ztlN8x6W489/ft5Xey9dPil+Wk4wv32nGDwpL3eZaL2xxzlnP4zW+89NOzneU/n388yZ3UPp88b8f1eN/f3otj2VfHh+4uBLpe6xExQ7utU21HeMx6/QcjyPfdr49PRneK5ZLjTmPYX8v/T3FY9+f7+8p8f2kP0evEf8e/jet143vl/x5Klcafe6kVfonXFCgi49v3rxZ6NZFbdL2DQOb7YyapdhO7N6AzKTFX1WvwwUAIC9IuAAAZICECwBABki4AABkgIQLAEAGSLgAAGSAhAsAQAZIuAAAZICECwBABki4AABkgIQLAEAGSLhAxvRf4ek+q2n/NSCA2kXCBTJ2/fp1K7/66isrAeQDCReoQfX19bSigWWGhAvUoNnZWStpRQPLBwkXK8ahQ4es1XbkyBGrNzc322OV4+Pj0VqB1TVf50q1nlp7mtzExEThPKo/P60lmHyP5Drx5f5+U1NT0dLb9F5PPvmkLddn0HOKme/1tFzz9TlU91bshg0b7H1Epea53t5ee9zX1xfNKe37j4yM2Otqud5n37590RIAi6b/gD4u/AOb8z/uozZp06+07RwmDfvcdXV1VsYnzZucnLT1zp49m7qeXLp0KfX5mg4ePGjrSGdnZ+o6/h49PT2py/Xa09PTto7WLfZemvR9XHd3d+o68dfz7582+Xr6fmnL/btpeZhAU9fxz6PfT/uB5HLNX0n0mYFqSYs/WrhYcdRd2t/fr2gOwiRQmPfBBx9Y3WlemDiDL7/8MgiTn8179dVXbX6Y4IIwQdlreOvvL3/5iz1WC3B4eNjmaZnm6fmtra02T8v1/mGSC86cOVNY3tTUZK996tQpW0+fR4/F1/P3iiv19eL8cw0ODlorVOt9/vnnQUtLi813vp5auhIm3uDatWup3//NN9+08ty5czZf3zc8KLP1tD6AMoV/WHPQws0HbfqV2sJta2ub89nDxFCYL97C1RQmW5vnfH6xSa/r76NWYxpfXmzSctHn0WO1luOf1+f7eqW+nq/n39N5azRMvtGcO9/Tn+vSWq7xSfQ6vp7e6+TJkzZ/pfHvA1RDWvzRwsWK19DQENXudq9lSWphxm3cuDGqLcyaNWui2m0PP/ywtUIXK/l6xVy5ciWqLY5/f53f3bt3r9XHxsaCbdu22fnc5PlpAAtDwsWKNzMzY+XatWutLIW6YsMDzjmTulrjifH8+fNRLZ26fMOW612v89xzz0Vr3PbZZ5/Z/PmU+nqVUOz7u/3791u3dthCtkR88eLF4LXXXouWAlgMEi5WHLW6fFTt0NCQJQN54oknrLwXPw97+PDhQotNpUb9qmWnxPPQQw/ZfJ0X9VHFWqe9vd3Ot2q5ErMSUnx0r4/s1Tqyfv16K3U+2Ofp9fT54/z95nu9xfDLgvy7zvf9RXVNalnv2bOnMN/XB7BI4Q5mDp27iZ9vQm3Spl9p2/le5zp1vtVH88bP4Sa/o85Hxp8Xn+LnWv28cHLSKF8JE2Hqck2+TphAU5frs6qMn18t9n6a/PXmO4cbf73kKGsfpazv7+snJz1Hiv3O8XPEK4E+M1AtafFHCxcrTphwCl2d/vj06dN3na/15XEdHR1BmHRs9LJTV65e789//nOhS3l0dNRG5vpraB1d/6tRwPLRRx/ZeU7Nd3pNjZr2dRobG+29dJ2r+GtopHSS3m++13PJrnP/jPFzvS+99FKhNavl3orW9z9x4kTR7y87d+6867trubd0ASzOKmXdqG7uu+++4ObNm2UN8sDyp+2r84UraTurm1OXtyjBKuERo7gXxUdi9wZkJi3+aOECAJABEi5WDHWZ6qhxIaORAWC5oEs5p7R9V1qXMrAQaV16QFbS4o8WLgAAGSDhAgCQARIuAAAZSD2Hy3kPAADKk8ylDJrKKQZNodYxaArVxKApAACqhIQLAEAGSLgAAGSAhAsAQAZIuAAAZICECwBABki4AABkgIQLAEAGSLgAAGQg9wm3p6fH7giiqaurK5oLAPkzNTVl+8Tm5uY5+8WJiYloDZQj17d2nJmZCb773e8Gs7Oz0ZwgmJ6eDhoaGqJHtUvbl1s7opYptrm148Jof3j58uXo0R11dXXBF198kYt9Y6WkxV+uW7inTp2yZNvZ2Rk0NTUV5gFAXg0ODlrDQ5P2jaL95Oeff251LF6uE+7x48et3L59eyGwDh8+bCUA5I1asepCVktW0yOPPBItQSXktktZ3cn333+/1XUk98knnwTbtm2zx5OTk0FjY6PVaxVdyqh1dCmXR+dz1RC5ePGi9QCmdTWjOLqUY7zrWAGlI7mOjg47TyF0KwPIKyUKTUqySratra3BP/7xj2gpypHbhOtdx+pOdj5K+ejRoxwZY9E0otN3Wj719fUFAwMDd80fHx+PngUsT0q6vb291iuI8uQy4aqrREEkO3bsKOz8+vv7bZ6WaR0AyBs1NjTpVJsOFGVsbCx4/vnnrY7Fy+U5XLU0du3aFT1Kt3fv3mD//v01+zvoe3EOF7VMsU1PVfl8H9HW1haMjo5aHfNLi79ctnCPHTtmpZKqfpD45KOVh4eHrQSAPNCpkI0bNwYjIyPRnNuNE7d27dqohsXKXQtXQfXwww9bcr106VLQ0tISLbltaGjIupnls88+C9atW2f1WqPtSwsXtSythYHidBpNd5hK+800oPT06dN37S9RHC3ckM5F6EfQCLy04Nm6dWtUu70uAOSBLoU8c+ZMoZdPtJ/s7u62cS0k2/Ll+taOeUYLF7WOFi6qiRYuAABVQsIFACADJFwAADJAwgUAIAMkXAAAMkDCBQAgA6mXBTGUHgCA8iRzKdfh5hTX4aLWcR0uqonrcAEAqBISLgAAGSDhAgCQARIuAAAZIOECAJABEi4AABkg4QIAkAESLgAAGSDhAgCQgdwm3ObmZrsTSHzasGFDcOjQoWgNoDKGhobsDm6Ksfr6+mgusDxon6e4VHz29fVFc+8YHx8Purq6Cuuo7OnpCaanp6M1UKrcJtzJycmodsfFixeD3t7eYN++fdwSDhXz1ltvFeJpdnY2GBkZsTpQTUqkanhon6e4TDM1NRVs2bIlGB4eLqyjsr+/P/jpT39qj1G63Hcp64hOO0MdrbW2tto8BRNQCdphjY2NBXV1dUF3d7fNO3HihJVANZ07d84S7pkzZ6zlmubrr7+2/eLJkydtP6mGip4jimssDOdwIw0NDcHTTz9t9WJHe8BCnTp1ykp1yT311FNW1wHdzMyM1YFq2bNnTzA6Omot2GJaWlqCCxcuBB0dHfa4sbGxkHCxcCTciHaA77//vtW9JQKU6+jRo9Yy2LZtW7Bp06Zo7p1EDKwk6oY+f/681dlPLlzuE67OX6g75f7777dzuOo+eeWVV4p2sQClUneyYkrdyWohqBels7PTlh0/ftxKYLlTktX+UJNaw9euXbM4/t3vfhetgVLRwk3QDrK9vZ0ReCjbsWPHrFR3stu+fbuVGoRCtzJWKsXvn/70p+gRSsWgqWjQlCYNDBAlXQWT5gGLpZ2S6JytXxa0Y8cOmyd0K2Ml2Lx5c2EfqUFT3ktz4MCBYGBgwOooDS3cGHX7tbW1Wf3TTz+1EliMiYmJ1EvP4g4fPhzVgJVBg6Z2795dOOX21VdfWYnSkHBj4gMC1q9fbyWwGO+9956VGhNw69atQgtB05EjR2yZelJ0nhdYrtSC1SkRHUCKToO8++67FseyZs0aK1Gi8IebIzxy+SbcQUSPape+erGprq7um8uXL0dr1iZ9zzxs52pRDOk3DpNrNOeOsOVbiLW05agM/b4orq+vrxCHyamzs9PWGRwcTF2uKTyY/GZ6etrWw930GyXltoXb1NQU1e7QPA11V8sjbTlQCvWU+LXcW7dutTJO3XJ+k5UPP/zQSmA5Uus2TLqFeBXVNfZF1/Bq5D1Kt0pZN6obDe64efMml8XUOG1fdXWynVGrFNuJ3RuQmbT44xwuAAAZIOECAJABEi4AABkg4QIAkAESLgAAGSDhAgCQARIuAAAZSL0Ol2vXAAAoTzKXcuOLnOLGF6h13PgC1cSNLwAAqBISLgAAGSDhAgCQARIuAAAZIOECAJABEi4AABkg4QIAkAESLgAAGSDhAgCQgdwn3JGRkaCrq8vuCqKpubk52LdvXzAzMxOtAZRnaGjI7uCm+Kqvr4/mAsvLxMREIU7Tpvb29mhNLFauE25PT0+wbdu2YHh4OJoTBJOTk8GBAweCo0ePRnOA8rz11luFW7zNzs7aQR6A/MltwlWro7+/3+qdnZ2WaLVTVNnd3W1HdEC5pqamgrGxsaCurs7iSk6cOGElsJy0tLTY/dW1H/RpenraYlfWr19vJRYvt/95gbqOlVybmpqCTz75JGhoaIiW5IO2L/95wdIbGBiwRLtr167gqaeesh4V0Y4sbzGXNcV2YveGBTp06FDQ29trde0vGxsbrY75pcVfLlu4anUoeEStW3Z8WCo6NaE/OiXaTZs2RXOD4NSpU1ENWL4OHjxopfaTJNvy5TLhXr16NaoFwZo1a6IaUFk6sLt48aJ1yXV0dNiBnXZccvz4cSuB5Uqn3TTmQHbv3m0lypP7UcrAUjl27JiVGgXvtm/fbqUG6jESHsvZyy+/bKVOu23evNnqKE8uE+7q1aujGrB0fPS7Buf55RY7duyweUK3Mpar8fHxwmm3/fv3W4ny5XbQlK6HVHeJjt4uX74czc0PbV8GTS0dXdO4bt266FG61tbW4MKFC9EjVFraoBWURtfc+uj6L774gnEui5AWf7ntUn7xxRet1FGcuvx0vk1UamSeJmCx3nvvPSuVVJOXWhw5csSW6fyuxx2wXOhgUclWNMKeZFs5uU24O3futJ2hqOtPLV0dkajUMHiOjFEOv8b72WefvasXYevWrVGNbmUsP7qUzWk/icrJbcLVUZu68/r6+gqJV5Rw9+7daztKYDF0/stHd8aTq9PlFR5zH374oZXAcqCBfPEbAnEpUGXl9hxu3mn7cg4XtUyxTU8VqiUt/rgsCACADJBwAQDIAAkXAIAMkHABAMgACRcAgAyQcAEAyEDqZUEMpQcAoDzJXMp1uDnFdbiodVyHi2riOlwAAKqEhAsAQAZIuAAAZICECwBABki4AABkgIQLAEAGSLgAAGSAhAsAQAZIuAAAZCCXCff555+3u4DEp/r6+qCrqysYGhqK1gIqY2JiIujp6bEY81jTY80Hqu3QoUOF2Ozr64vm3pEWv/v27QtmZmaiNVAy3doxLvxBv7l161b0qDa1t7frfltFp7a2tpr/DfQ9a/07LgeDg4P2N5WMMU2KMywd/cYo7uzZs980NTXNicmDBw9GS2+bnJycszw+Eb/3pt8oKdddymHA2L0uNV26dCno7Oy0+WNjY3bUB5Rjamoq2LFjh8VXa2trcObMGatPT09bS2Lt2rXRmkD2zp07FzQ3N1tcquWa5uuvv7bYDZOzxa5KX1f7SSxMLv/zgieffDIYHR21hKsyLmz9WiDV1dVZl0mt/g76XvznBUtL3XD9/f1W/+yzz4J169ZZHdlQbCd2byjC/5e4sIUb9Pb2RnPT+f5T+H2LS4s/Bk0l/OIXv7BydnY2GB8ftzqwGB9//LGVaiG0tLRYHVjpzp8/b6UaJVgYEm7Ct771ragGlGdyctLKhoYGK4GVbmBgwBojMl9LGHcj4QIA5qXRyi+99JJ1k6rXZs+ePdESlIqEm3Djxo2oFgSrV6+OasDC0eWGWqFk+8QTT1jrVsn2o48+YvzHIpBwE15//XUrtbPkvBvK8aMf/chKDcLTiGVgJUpLtvfff3+0FAtBwo0oqHTjCx/qrvMTHMGhHLt3745qgcWWLqkQjX7XDVY0D1jOFKvPPvtsIdlqdDLJtgzfJIRJJvc3vuju7ubGF6gIxVIyvnzixgFLS78xiuvr67srJn3q7Oy0dY4cOZK63Ce9BtLp90nKZQu3sbExqt2hLmTd+GJwcDB44403aN2iIhRLJ0+etGu+nWItTMSpt9EDlpM1a9ZENVRCLm98AW58gdqn2E7s3oDMpMUf53ABAMgACRcAgAyQcAEAyAAJFwCADJBwAQDIAAkXAIAMkHABAMgACRcAgAyk3viCi8UBAChPMpdyp6mc4k5TqHXcaQrVxJ2mAACoEhIuAAAZIOECAJABEi4AABkg4QIAkAESLgAAGSDhAgCQARIuAAAZIOECAJCB3CbcoaEhuxNI2nTo0KFoLSDd1NSU3ZUtGTvt7e3ByMhItFZxxeJPzx8YGAhmZmaiNYHq6OrqKsSl6ihfbhPulStXohqwcFevXo1qc42NjQXbtm2bN+kWiz89f9euXcGmTZssqQPVoAPC4eHh6FEQXL9+PaqhHHQph3S/y/i0Z8+eaAkwv7Nnz1rcXLp0Kairq7N5f/vb36wshcfd5ORk0NfXZ/NU7+npsTqQJfWueOx1dnZaicog4QIV0tLSEmzcuNHqi2kRNDY22sGeJ121dicmJqwOZOU3v/lNMDs7G+zduzd45JFHormoBBIuUCFKjufPn7f6M888Y+Vi7Ny5086biZIukJXx8fGgv7/fempeeOGFaC4qhYQb8oEBmurr66O5QGm2bNlisbNu3TprGXR3d5c1yKShoSGqAdn62c9+ZuXbb79NHC4BEi5QYWohcP4VK41Gx2vsQFtbW9DR0RHNRSWRcEM+aEXTtWvXorlAaXzQ1PT0dOH8q5JuKZcHpYlfErRmzZqoBiyt48ePWxzrNIb3+PX29toyn8eYgvKQcIEKURdcfIT7f/7zn6i2MMeOHbMdnzz66KNWAktt7dq1UQ1LhYQLVJC65dxDDz1kpVoFuknGfOMDdN2tbrrirQp17WnkM5CFwcHBQk+fT95jo1jUY+KxPCTckHef+KQBLwouoBQ+aEqTblohra2thfNg6o5TPGlAVRp/blNTUyHZ6vnvvPOO1QHUhtwm3AcffDCqAQv3wAMPRLW5lCjVKhgdHY3mBMGNGzesVCvBFYs/rXPkyBF7PqNEUW0+hoDu5spYFR55z2nKqevr5s2bdsSN2qXte+vWLbbzEtMAqO9973vWwr1w4YK1YpENxTY9VaiWtPijSxlYQqdOnbKu5L///e8kWyDnaOHmFC1c1DpauKgmWrgAAFQJCRcAgAyQcAEAyAAJFwCADJBwAQDIAAkXAIAMkHABAMgACRcAgAyQcAEAyAAJFwCADKTe2pHboQEAUJ5kLuVeyjnFvZRR67iXMqqJeykDAFAlJFwAADJAwgUAIAMkXAAAMkDCBQAgAyRcAAAyQMIFACADJFwAADJAwgUAIAO5TbhTU1N2J5C06dChQ9FawOIMDQ2lxlZ7e3swMDAQzMzMRGsC1aX9XX19vcVnX19fNHcurdPc3FyI466urmBycjJailLlNuFevXo1qgGVd+XKlag219jYWLBr165g06ZNdtAHVMv4+Lgl0d7e3mB2djaae7d9+/bZOvEEOzw8HGzYsIEDxwWiSzl09uxZu+elT3v27ImWAOXTPasVV9pheQtC9Z6eHqsD1XDu3DlLuGfOnLFWaxodFB44cMDqil3FsfaXWl9J+oMPPrBlKA0JF8hIY2OjHcx50lVrd2JiwupA1hSLo6OjwZYtW6I5dzt16lRUu72+bN68OWhtbbX66dOnrURpSLhAxnbu3BnVbiddYLnyUyNtbW1WOnUny/Xr161EaUi4IR3h+WAATTq3ASyVhoaGqAYsb59++mlUm+v//u//ohoWgoQLAEAGSLih5KApnaMAlkp8ZOeaNWuiGrD8aNxBmhs3bkQ1LAQJF8jYsWPHoloQPProo1ENWH6+853vWJkca/Dxxx9bWSwhIx0JF8iILrHQDQR0TaNoIEpLS4vVgeXosccei2qB3bBFRkZGgosXL1r98ccftxKlIeECS+y+++6zwXhNTU2FZKvLKt555x2rA9Wggz8fKKpTafLiiy/aY91JSnR6zUco64YtWrZt2zZbXzHs66E0uU24q1evjmpz60AlPPjgg1FtLu28jhw5Ytc/MloZK4EODLu7u4O6ujp7rFKPP/roI3uM0q0Kj1RuH9pEdDR+8+ZNO5JB7dL21R2Q2M6oVYrtxO4NyExa/NGlDABABki4AABkgIQLAEAGSLgAAGSAhAsAQAZIuAAAZCD1siCG0gMAUJ5kLuU63JziOlzUOq7DRTVxHS4AAFVCwgUAIAMkXAAAMkDCBQAgAyRcAAAyQMIFACADJFwAADJAwgUAIAMkXAAAMpDrhDs1NRX09PQEzc3NdlcQTap3dXUF4+Pj0VrAvcXjJzndi2Iv7TmauEMSsjYxMWF3GkyLR03t7e3Rmlis3CbcoaGhoKmpKejv7w8mJyejuYHVh4eHgy1btrDTQ0ni8bMQOuADkB+5TLgjIyPBjh07rN7a2hqcPHnSkqumS5cuBX19fUFdXZ0tB0qluPE48qkUbW1tdz1PLQogSy0tLXZ/9XgcTk9PF/aF69evtxKLl8uE+8tf/tJKJdvR0dGgo6PDHouCbs+ePcG1a9fY6QHItWPHjgWzs7NW37lzp5VYvNwlXHXjeRfgr3/966ChocHqAIC5Dh48aGVnZ2fQ2NhodSxe7hLu1atXo1oQfPvb37ZSgwXigwM0aSCMulSAUvX29s6JoYGBgWjJvY2Njc15nganEHuoNo1z8dbt7t27rUR5cjtoaj6LHQgDALXg5ZdftlKDSzdv3mx1lCd3CXf16tVRLQhu3Lhhpc7b+iABDXwBFiM5aOq5556LltxbctCUxhWopQtUiy6L9EbH/v37rUT5cpdwlVx91N1vf/tbKwEAd3iS1b5y69atVkf5ctmlfODAASsvXrxo58t0Dtf973//i2pA5eh8rm4qoJuqAMuZ9ocaVyDd3d0MLK2gXCZcdfUpkESBtW7dusKAFd0IA1iM5KApTX4wd/z4cesuvn79uj0Glqv4YD8uBaqs3A6aeuONN4KzZ8/acPf4TS40QEDJWMu0wwTmo5iZz8zMjJU//OEPrZS1a9fOKYFqU5x6o4NLgSpvVXjUPef6A3V73bx5k2RT47R9dVcZtvPS0wCUxx9/3O7Uc+HChWgulppiO7F7AzKTFn+5beECWRkcHLRWrK5rBJBftHBzihYuah0tXFQTLVwAAKqEhAsAQAZIuAAAZICECwBABki4AABkIHWUMiP7AAAoTzKX3pVwAQBA5dGlDABABki4AABkgIQLAEAGSLgAAGSAhAsAwJILgv8HpCPADSJu/PkAAAAASUVORK5CYII=;" parent="1" vertex="1">
          <mxGeometry x="10" y="3" width="476" height="287" as="geometry" />
        </mxCell>
        <mxCell id="jMTXG-PAdd99zwZk45q6-13" value="" style="group" parent="1" connectable="0" vertex="1">
          <mxGeometry x="940" y="270" width="80" height="80" as="geometry" />
        </mxCell>
        <mxCell id="jMTXG-PAdd99zwZk45q6-14" value="" style="shape=lineEllipse;perimeter=ellipsePerimeter;whiteSpace=wrap;html=1;backgroundOutline=1;movable=1;resizable=1;rotatable=1;deletable=1;editable=1;locked=0;connectable=1;container=0;" parent="jMTXG-PAdd99zwZk45q6-13" vertex="1">
          <mxGeometry width="80" height="80" as="geometry" />
        </mxCell>
        <mxCell id="jMTXG-PAdd99zwZk45q6-15" value="" style="line;strokeWidth=2;direction=south;html=1;noLabel=0;movable=1;resizable=1;rotatable=1;deletable=1;editable=1;locked=0;connectable=1;container=0;" parent="jMTXG-PAdd99zwZk45q6-13" vertex="1">
          <mxGeometry x="35" width="10" height="40" as="geometry" />
        </mxCell>
        <mxCell id="jMTXG-PAdd99zwZk45q6-16" value="&lt;font style=&quot;font-size: 12px;&quot;&gt;22&lt;/font&gt;" style="text;html=1;align=center;verticalAlign=middle;resizable=1;points=[];autosize=1;strokeColor=none;fillColor=none;fontSize=8;movable=1;rotatable=1;deletable=1;editable=1;locked=0;connectable=1;container=0;" parent="jMTXG-PAdd99zwZk45q6-13" vertex="1">
          <mxGeometry x="35" y="10" width="40" height="30" as="geometry" />
        </mxCell>
        <mxCell id="jMTXG-PAdd99zwZk45q6-17" value="22" style="text;html=1;align=center;verticalAlign=middle;resizable=1;points=[];autosize=1;strokeColor=none;fillColor=none;labelBackgroundColor=none;fontStyle=1;fontSize=12;movable=1;rotatable=1;deletable=1;editable=1;locked=0;connectable=1;container=0;" parent="jMTXG-PAdd99zwZk45q6-13" vertex="1">
          <mxGeometry y="10" width="40" height="30" as="geometry" />
        </mxCell>
        <mxCell id="jMTXG-PAdd99zwZk45q6-19" value="" style="group" parent="1" connectable="0" vertex="1">
          <mxGeometry x="760" y="571" width="80" height="80" as="geometry" />
        </mxCell>
        <mxCell id="jMTXG-PAdd99zwZk45q6-20" value="" style="shape=lineEllipse;perimeter=ellipsePerimeter;whiteSpace=wrap;html=1;backgroundOutline=1;movable=1;resizable=1;rotatable=1;deletable=1;editable=1;locked=0;connectable=1;container=0;" parent="jMTXG-PAdd99zwZk45q6-19" vertex="1">
          <mxGeometry width="80" height="80" as="geometry" />
        </mxCell>
        <mxCell id="jMTXG-PAdd99zwZk45q6-21" value="" style="line;strokeWidth=2;direction=south;html=1;noLabel=0;movable=1;resizable=1;rotatable=1;deletable=1;editable=1;locked=0;connectable=1;container=0;" parent="jMTXG-PAdd99zwZk45q6-19" vertex="1">
          <mxGeometry x="35" width="10" height="40" as="geometry" />
        </mxCell>
        <mxCell id="jMTXG-PAdd99zwZk45q6-22" value="&lt;font size=&quot;1&quot; style=&quot;&quot;&gt;&lt;b style=&quot;font-size: 13px;&quot;&gt;3&lt;/b&gt;&lt;/font&gt;" style="text;html=1;align=center;verticalAlign=middle;resizable=1;points=[];autosize=1;strokeColor=none;fillColor=none;fontSize=8;movable=1;rotatable=1;deletable=1;editable=1;locked=0;connectable=1;container=0;" parent="jMTXG-PAdd99zwZk45q6-19" vertex="1">
          <mxGeometry x="40" y="10" width="30" height="30" as="geometry" />
        </mxCell>
        <mxCell id="jMTXG-PAdd99zwZk45q6-23" value="&lt;font style=&quot;font-size: 12px;&quot;&gt;3&lt;/font&gt;" style="text;html=1;align=center;verticalAlign=middle;resizable=1;points=[];autosize=1;strokeColor=none;fillColor=none;labelBackgroundColor=none;fontStyle=1;fontSize=8;movable=1;rotatable=1;deletable=1;editable=1;locked=0;connectable=1;container=0;" parent="jMTXG-PAdd99zwZk45q6-19" vertex="1">
          <mxGeometry x="5" y="10" width="30" height="30" as="geometry" />
        </mxCell>
        <mxCell id="jMTXG-PAdd99zwZk45q6-29" value="" style="group" parent="1" connectable="0" vertex="1">
          <mxGeometry x="990" y="571" width="80" height="80" as="geometry" />
        </mxCell>
        <mxCell id="jMTXG-PAdd99zwZk45q6-30" value="" style="shape=lineEllipse;perimeter=ellipsePerimeter;whiteSpace=wrap;html=1;backgroundOutline=1;movable=1;resizable=1;rotatable=1;deletable=1;editable=1;locked=0;connectable=1;container=0;" parent="jMTXG-PAdd99zwZk45q6-29" vertex="1">
          <mxGeometry width="80" height="80" as="geometry" />
        </mxCell>
        <mxCell id="jMTXG-PAdd99zwZk45q6-31" value="" style="line;strokeWidth=2;direction=south;html=1;noLabel=0;movable=1;resizable=1;rotatable=1;deletable=1;editable=1;locked=0;connectable=1;container=0;" parent="jMTXG-PAdd99zwZk45q6-29" vertex="1">
          <mxGeometry x="35" width="10" height="40" as="geometry" />
        </mxCell>
        <mxCell id="jMTXG-PAdd99zwZk45q6-32" value="&lt;font style=&quot;font-size: 12px;&quot;&gt;39&lt;/font&gt;" style="text;html=1;align=center;verticalAlign=middle;resizable=1;points=[];autosize=1;strokeColor=none;fillColor=none;fontSize=8;movable=1;rotatable=1;deletable=1;editable=1;locked=0;connectable=1;container=0;" parent="jMTXG-PAdd99zwZk45q6-29" vertex="1">
          <mxGeometry x="35" y="10" width="40" height="30" as="geometry" />
        </mxCell>
        <mxCell id="jMTXG-PAdd99zwZk45q6-33" value="&lt;font style=&quot;font-size: 12px;&quot;&gt;16&lt;/font&gt;" style="text;html=1;align=center;verticalAlign=middle;resizable=1;points=[];autosize=1;strokeColor=none;fillColor=none;labelBackgroundColor=none;fontStyle=1;fontSize=8;movable=1;rotatable=1;deletable=1;editable=1;locked=0;connectable=1;container=0;" parent="jMTXG-PAdd99zwZk45q6-29" vertex="1">
          <mxGeometry y="10" width="40" height="30" as="geometry" />
        </mxCell>
        <mxCell id="jMTXG-PAdd99zwZk45q6-35" value="" style="group" parent="1" connectable="0" vertex="1">
          <mxGeometry x="840" y="611" width="150" height="30" as="geometry" />
        </mxCell>
        <mxCell id="jMTXG-PAdd99zwZk45q6-36" style="edgeStyle=none;curved=1;html=1;startSize=10;endFill=1;endSize=10;strokeWidth=2;fontSize=12;" parent="jMTXG-PAdd99zwZk45q6-35" edge="1">
          <mxGeometry relative="1" as="geometry">
            <mxPoint as="sourcePoint" />
            <mxPoint x="150" as="targetPoint" />
          </mxGeometry>
        </mxCell>
        <mxCell id="jMTXG-PAdd99zwZk45q6-37" value="13" style="text;html=1;resizable=0;points=[];align=center;verticalAlign=middle;labelBackgroundColor=#ffffff;fontSize=20;" parent="jMTXG-PAdd99zwZk45q6-36" connectable="0" vertex="1">
          <mxGeometry x="0.1545" relative="1" as="geometry">
            <mxPoint x="3" y="-20" as="offset" />
          </mxGeometry>
        </mxCell>
        <mxCell id="jMTXG-PAdd99zwZk45q6-38" value="B" style="text;html=1;strokeColor=none;fillColor=none;align=center;verticalAlign=middle;whiteSpace=wrap;rounded=0;shadow=1;labelBackgroundColor=none;fontSize=20;" parent="jMTXG-PAdd99zwZk45q6-35" vertex="1">
          <mxGeometry x="61.36363636363636" y="10" width="27.27272727272727" height="20" as="geometry" />
        </mxCell>
        <mxCell id="jMTXG-PAdd99zwZk45q6-39" value="" style="group" parent="1" connectable="0" vertex="1">
          <mxGeometry x="1260" y="310" width="80" height="80" as="geometry" />
        </mxCell>
        <mxCell id="jMTXG-PAdd99zwZk45q6-40" value="" style="shape=lineEllipse;perimeter=ellipsePerimeter;whiteSpace=wrap;html=1;backgroundOutline=1;movable=1;resizable=1;rotatable=1;deletable=1;editable=1;locked=0;connectable=1;container=0;" parent="jMTXG-PAdd99zwZk45q6-39" vertex="1">
          <mxGeometry width="80" height="80" as="geometry" />
        </mxCell>
        <mxCell id="jMTXG-PAdd99zwZk45q6-41" value="" style="line;strokeWidth=2;direction=south;html=1;noLabel=0;movable=1;resizable=1;rotatable=1;deletable=1;editable=1;locked=0;connectable=1;container=0;" parent="jMTXG-PAdd99zwZk45q6-39" vertex="1">
          <mxGeometry x="35" width="10" height="40" as="geometry" />
        </mxCell>
        <mxCell id="jMTXG-PAdd99zwZk45q6-42" value="&lt;font style=&quot;font-size: 12px;&quot;&gt;39&lt;/font&gt;" style="text;html=1;align=center;verticalAlign=middle;resizable=1;points=[];autosize=1;strokeColor=none;fillColor=none;fontSize=8;movable=1;rotatable=1;deletable=1;editable=1;locked=0;connectable=1;container=0;" parent="jMTXG-PAdd99zwZk45q6-39" vertex="1">
          <mxGeometry x="35" y="10" width="40" height="30" as="geometry" />
        </mxCell>
        <mxCell id="jMTXG-PAdd99zwZk45q6-43" value="&lt;font style=&quot;font-size: 12px;&quot;&gt;39&lt;/font&gt;" style="text;html=1;align=center;verticalAlign=middle;resizable=1;points=[];autosize=1;strokeColor=none;fillColor=none;labelBackgroundColor=none;fontStyle=1;fontSize=8;movable=1;rotatable=1;deletable=1;editable=1;locked=0;connectable=1;container=0;" parent="jMTXG-PAdd99zwZk45q6-39" vertex="1">
          <mxGeometry y="10" width="40" height="30" as="geometry" />
        </mxCell>
        <mxCell id="jMTXG-PAdd99zwZk45q6-45" value="" style="group;perimeterSpacing=7;strokeWidth=7;strokeColor=none;" parent="1" connectable="0" vertex="1">
          <mxGeometry x="800" y="370" width="260" height="30" as="geometry" />
        </mxCell>
        <mxCell id="jMTXG-PAdd99zwZk45q6-48" value="D" style="text;html=1;strokeColor=none;fillColor=none;align=center;verticalAlign=middle;whiteSpace=wrap;rounded=0;shadow=1;labelBackgroundColor=none;fontSize=20;" parent="jMTXG-PAdd99zwZk45q6-45" vertex="1">
          <mxGeometry x="106.36363636363636" y="10" width="47.272727272727266" height="20" as="geometry" />
        </mxCell>
        <mxCell id="CE2OxablWWYP4FsZfU3G-15" value="E" style="text;html=1;strokeColor=none;fillColor=none;align=center;verticalAlign=middle;whiteSpace=wrap;rounded=0;shadow=1;labelBackgroundColor=none;fontSize=20;" parent="jMTXG-PAdd99zwZk45q6-45" vertex="1">
          <mxGeometry x="206.36363636363637" y="4" width="47.272727272727266" height="20" as="geometry" />
        </mxCell>
        <mxCell id="jMTXG-PAdd99zwZk45q6-52" value="" style="endArrow=none;dashed=1;html=1;rounded=0;strokeWidth=3;entryX=1;entryY=0;entryDx=0;entryDy=0;exitX=0.263;exitY=0.938;exitDx=0;exitDy=0;exitPerimeter=0;" parent="1" source="CE2OxablWWYP4FsZfU3G-8" target="jMTXG-PAdd99zwZk45q6-30" edge="1">
          <mxGeometry width="50" height="50" relative="1" as="geometry">
            <mxPoint x="970" y="474" as="sourcePoint" />
            <mxPoint x="1070" y="578" as="targetPoint" />
          </mxGeometry>
        </mxCell>
        <mxCell id="jMTXG-PAdd99zwZk45q6-59" value="" style="group" parent="1" connectable="0" vertex="1">
          <mxGeometry x="1395" y="410" width="29.99636363636364" height="90" as="geometry" />
        </mxCell>
        <mxCell id="jMTXG-PAdd99zwZk45q6-62" value="" style="group" parent="1" connectable="0" vertex="1">
          <mxGeometry x="540" y="611" width="220" height="40" as="geometry" />
        </mxCell>
        <mxCell id="jMTXG-PAdd99zwZk45q6-63" style="edgeStyle=none;curved=1;html=1;startSize=10;endFill=1;endSize=10;strokeWidth=2;fontSize=12;fillColor=#f8cecc;strokeColor=#b85450;" parent="jMTXG-PAdd99zwZk45q6-62" edge="1">
          <mxGeometry relative="1" as="geometry">
            <mxPoint as="sourcePoint" />
            <mxPoint x="220" as="targetPoint" />
          </mxGeometry>
        </mxCell>
        <mxCell id="jMTXG-PAdd99zwZk45q6-64" value="3" style="text;html=1;resizable=0;points=[];align=center;verticalAlign=middle;labelBackgroundColor=#ffffff;fontSize=20;" parent="jMTXG-PAdd99zwZk45q6-63" connectable="0" vertex="1">
          <mxGeometry x="0.1545" relative="1" as="geometry">
            <mxPoint x="3" y="-20" as="offset" />
          </mxGeometry>
        </mxCell>
        <mxCell id="jMTXG-PAdd99zwZk45q6-65" value="A" style="text;html=1;strokeColor=none;fillColor=none;align=center;verticalAlign=middle;whiteSpace=wrap;rounded=0;shadow=1;labelBackgroundColor=none;fontSize=20;" parent="jMTXG-PAdd99zwZk45q6-62" vertex="1">
          <mxGeometry x="90" y="10" width="40" height="20" as="geometry" />
        </mxCell>
        <mxCell id="jMTXG-PAdd99zwZk45q6-7" value="" style="group;labelBorderColor=default;textShadow=0;" parent="jMTXG-PAdd99zwZk45q6-62" connectable="0" vertex="1">
          <mxGeometry x="-50" y="-40" width="80" height="80" as="geometry" />
        </mxCell>
        <mxCell id="jMTXG-PAdd99zwZk45q6-8" value="" style="shape=lineEllipse;perimeter=ellipsePerimeter;whiteSpace=wrap;html=1;backgroundOutline=1;movable=1;resizable=1;rotatable=1;deletable=1;editable=1;locked=0;connectable=1;container=0;" parent="jMTXG-PAdd99zwZk45q6-7" vertex="1">
          <mxGeometry width="80" height="80" as="geometry" />
        </mxCell>
        <mxCell id="jMTXG-PAdd99zwZk45q6-9" value="" style="line;strokeWidth=2;direction=south;html=1;noLabel=0;movable=1;resizable=1;rotatable=1;deletable=1;editable=1;locked=0;connectable=1;container=0;" parent="jMTXG-PAdd99zwZk45q6-7" vertex="1">
          <mxGeometry x="35" width="10" height="40" as="geometry" />
        </mxCell>
        <mxCell id="jMTXG-PAdd99zwZk45q6-10" value="&lt;font size=&quot;1&quot; style=&quot;&quot;&gt;&lt;b style=&quot;font-size: 12px;&quot;&gt;0&lt;/b&gt;&lt;/font&gt;" style="text;html=1;align=center;verticalAlign=middle;resizable=1;points=[];autosize=1;strokeColor=none;fillColor=none;fontSize=8;movable=1;rotatable=1;deletable=1;editable=1;locked=0;connectable=1;container=0;" parent="jMTXG-PAdd99zwZk45q6-7" vertex="1">
          <mxGeometry x="40" y="10" width="30" height="30" as="geometry" />
        </mxCell>
        <mxCell id="jMTXG-PAdd99zwZk45q6-11" value="&lt;font style=&quot;font-size: 13px;&quot;&gt;0&lt;/font&gt;" style="text;html=1;align=center;verticalAlign=middle;resizable=1;points=[];autosize=1;strokeColor=none;fillColor=none;labelBackgroundColor=none;fontStyle=1;fontSize=8;movable=1;rotatable=1;deletable=1;editable=1;locked=0;connectable=1;container=0;" parent="jMTXG-PAdd99zwZk45q6-7" vertex="1">
          <mxGeometry x="5" y="10" width="30" height="30" as="geometry" />
        </mxCell>
        <mxCell id="jMTXG-PAdd99zwZk45q6-73" value="" style="group" parent="1" connectable="0" vertex="1">
          <mxGeometry x="800" y="506" width="220" height="30" as="geometry" />
        </mxCell>
        <mxCell id="jMTXG-PAdd99zwZk45q6-74" style="edgeStyle=none;curved=1;html=1;startSize=10;endFill=1;endSize=10;strokeWidth=2;fontSize=12;fillColor=#f8cecc;strokeColor=#b85450;exitX=0;exitY=0.5;exitDx=0;exitDy=0;exitPerimeter=0;" parent="jMTXG-PAdd99zwZk45q6-73" source="jMTXG-PAdd99zwZk45q6-21" edge="1">
          <mxGeometry relative="1" as="geometry">
            <mxPoint as="sourcePoint" />
            <mxPoint x="30" y="-26" as="targetPoint" />
          </mxGeometry>
        </mxCell>
        <mxCell id="jMTXG-PAdd99zwZk45q6-75" value="7" style="text;html=1;resizable=0;points=[];align=center;verticalAlign=middle;labelBackgroundColor=#ffffff;fontSize=20;" parent="jMTXG-PAdd99zwZk45q6-74" connectable="0" vertex="1">
          <mxGeometry x="0.1545" relative="1" as="geometry">
            <mxPoint x="18" y="2" as="offset" />
          </mxGeometry>
        </mxCell>
        <mxCell id="CE2OxablWWYP4FsZfU3G-1" value="" style="group;labelBorderColor=default;textShadow=0;" parent="1" connectable="0" vertex="1">
          <mxGeometry x="790" y="400" width="80" height="80" as="geometry" />
        </mxCell>
        <mxCell id="CE2OxablWWYP4FsZfU3G-2" value="" style="shape=lineEllipse;perimeter=ellipsePerimeter;whiteSpace=wrap;html=1;backgroundOutline=1;movable=1;resizable=1;rotatable=1;deletable=1;editable=1;locked=0;connectable=1;container=0;" parent="CE2OxablWWYP4FsZfU3G-1" vertex="1">
          <mxGeometry width="80" height="80" as="geometry" />
        </mxCell>
        <mxCell id="CE2OxablWWYP4FsZfU3G-3" value="" style="line;strokeWidth=2;direction=south;html=1;noLabel=0;movable=1;resizable=1;rotatable=1;deletable=1;editable=1;locked=0;connectable=1;container=0;" parent="CE2OxablWWYP4FsZfU3G-1" vertex="1">
          <mxGeometry x="35" width="10" height="40" as="geometry" />
        </mxCell>
        <mxCell id="CE2OxablWWYP4FsZfU3G-4" value="&lt;font style=&quot;font-size: 12px;&quot;&gt;10&lt;/font&gt;" style="text;html=1;align=center;verticalAlign=middle;resizable=1;points=[];autosize=1;strokeColor=none;fillColor=none;fontSize=8;movable=1;rotatable=1;deletable=1;editable=1;locked=0;connectable=1;container=0;" parent="CE2OxablWWYP4FsZfU3G-1" vertex="1">
          <mxGeometry x="35" y="10" width="40" height="30" as="geometry" />
        </mxCell>
        <mxCell id="CE2OxablWWYP4FsZfU3G-5" value="&lt;font style=&quot;font-size: 12px;&quot;&gt;10&lt;/font&gt;" style="text;html=1;align=center;verticalAlign=middle;resizable=1;points=[];autosize=1;strokeColor=none;fillColor=none;labelBackgroundColor=none;fontStyle=1;fontSize=8;movable=1;rotatable=1;deletable=1;editable=1;locked=0;connectable=1;container=0;" parent="CE2OxablWWYP4FsZfU3G-1" vertex="1">
          <mxGeometry y="10" width="40" height="30" as="geometry" />
        </mxCell>
        <mxCell id="jMTXG-PAdd99zwZk45q6-76" value="C" style="text;html=1;strokeColor=none;fillColor=none;align=center;verticalAlign=middle;whiteSpace=wrap;rounded=0;shadow=1;labelBackgroundColor=none;fontSize=20;" parent="1" vertex="1">
          <mxGeometry x="780" y="506" width="40" height="20" as="geometry" />
        </mxCell>
        <mxCell id="jMTXG-PAdd99zwZk45q6-46" style="edgeStyle=none;curved=1;html=1;startSize=10;endFill=1;endSize=10;strokeWidth=2;fontSize=12;fillColor=#f8cecc;strokeColor=#b85450;exitX=1.133;exitY=0.367;exitDx=0;exitDy=0;exitPerimeter=0;entryX=0;entryY=1;entryDx=0;entryDy=0;" parent="1" source="CE2OxablWWYP4FsZfU3G-4" target="jMTXG-PAdd99zwZk45q6-14" edge="1">
          <mxGeometry relative="1" as="geometry">
            <mxPoint x="870" y="400" as="sourcePoint" />
            <mxPoint x="1130" y="400" as="targetPoint" />
          </mxGeometry>
        </mxCell>
        <mxCell id="jMTXG-PAdd99zwZk45q6-47" value="12" style="text;html=1;resizable=0;points=[];align=center;verticalAlign=middle;labelBackgroundColor=#ffffff;fontSize=20;" parent="jMTXG-PAdd99zwZk45q6-46" connectable="0" vertex="1">
          <mxGeometry x="0.1545" relative="1" as="geometry">
            <mxPoint x="-15" y="-20" as="offset" />
          </mxGeometry>
        </mxCell>
        <mxCell id="CE2OxablWWYP4FsZfU3G-7" value="" style="group" parent="1" connectable="0" vertex="1">
          <mxGeometry x="1080" y="400" width="80" height="80" as="geometry" />
        </mxCell>
        <mxCell id="CE2OxablWWYP4FsZfU3G-8" value="" style="shape=lineEllipse;perimeter=ellipsePerimeter;whiteSpace=wrap;html=1;backgroundOutline=1;movable=1;resizable=1;rotatable=1;deletable=1;editable=1;locked=0;connectable=1;container=0;" parent="CE2OxablWWYP4FsZfU3G-7" vertex="1">
          <mxGeometry width="80" height="80" as="geometry" />
        </mxCell>
        <mxCell id="CE2OxablWWYP4FsZfU3G-9" value="" style="line;strokeWidth=2;direction=south;html=1;noLabel=0;movable=1;resizable=1;rotatable=1;deletable=1;editable=1;locked=0;connectable=1;container=0;" parent="CE2OxablWWYP4FsZfU3G-7" vertex="1">
          <mxGeometry x="35" width="10" height="40" as="geometry" />
        </mxCell>
        <mxCell id="CE2OxablWWYP4FsZfU3G-10" value="&lt;font style=&quot;font-size: 12px;&quot;&gt;39&lt;/font&gt;" style="text;html=1;align=center;verticalAlign=middle;resizable=1;points=[];autosize=1;strokeColor=none;fillColor=none;fontSize=8;movable=1;rotatable=1;deletable=1;editable=1;locked=0;connectable=1;container=0;" parent="CE2OxablWWYP4FsZfU3G-7" vertex="1">
          <mxGeometry x="35" y="10" width="40" height="30" as="geometry" />
        </mxCell>
        <mxCell id="CE2OxablWWYP4FsZfU3G-11" value="22" style="text;html=1;align=center;verticalAlign=middle;resizable=1;points=[];autosize=1;strokeColor=none;fillColor=none;labelBackgroundColor=none;fontStyle=1;fontSize=12;movable=1;rotatable=1;deletable=1;editable=1;locked=0;connectable=1;container=0;" parent="CE2OxablWWYP4FsZfU3G-7" vertex="1">
          <mxGeometry y="10" width="40" height="30" as="geometry" />
        </mxCell>
        <mxCell id="CE2OxablWWYP4FsZfU3G-13" style="edgeStyle=none;curved=1;html=1;startSize=10;endFill=1;endSize=10;strokeWidth=2;fontSize=12;fillColor=#f8cecc;strokeColor=#330000;exitX=1;exitY=1;exitDx=0;exitDy=0;entryX=0.25;entryY=0.067;entryDx=0;entryDy=0;entryPerimeter=0;" parent="1" source="jMTXG-PAdd99zwZk45q6-14" target="CE2OxablWWYP4FsZfU3G-11" edge="1">
          <mxGeometry relative="1" as="geometry">
            <mxPoint x="1032" y="413" as="sourcePoint" />
            <mxPoint x="1120" y="330" as="targetPoint" />
          </mxGeometry>
        </mxCell>
        <mxCell id="CE2OxablWWYP4FsZfU3G-16" value="4" style="text;html=1;resizable=0;points=[];align=center;verticalAlign=middle;labelBackgroundColor=#ffffff;fontSize=20;" parent="1" connectable="0" vertex="1">
          <mxGeometry x="929.9975206770629" y="369.99513521427343" as="geometry">
            <mxPoint x="133" y="-15" as="offset" />
          </mxGeometry>
        </mxCell>
        <mxCell id="CE2OxablWWYP4FsZfU3G-17" value="" style="group" parent="1" connectable="0" vertex="1">
          <mxGeometry x="1120" y="160" width="80" height="80" as="geometry" />
        </mxCell>
        <mxCell id="CE2OxablWWYP4FsZfU3G-18" value="" style="shape=lineEllipse;perimeter=ellipsePerimeter;whiteSpace=wrap;html=1;backgroundOutline=1;movable=1;resizable=1;rotatable=1;deletable=1;editable=1;locked=0;connectable=1;container=0;" parent="CE2OxablWWYP4FsZfU3G-17" vertex="1">
          <mxGeometry width="80" height="80" as="geometry" />
        </mxCell>
        <mxCell id="CE2OxablWWYP4FsZfU3G-19" value="" style="line;strokeWidth=2;direction=south;html=1;noLabel=0;movable=1;resizable=1;rotatable=1;deletable=1;editable=1;locked=0;connectable=1;container=0;" parent="CE2OxablWWYP4FsZfU3G-17" vertex="1">
          <mxGeometry x="35" width="10" height="40" as="geometry" />
        </mxCell>
        <mxCell id="CE2OxablWWYP4FsZfU3G-20" value="&lt;font style=&quot;font-size: 12px;&quot;&gt;32&lt;/font&gt;" style="text;html=1;align=center;verticalAlign=middle;resizable=1;points=[];autosize=1;strokeColor=none;fillColor=none;fontSize=8;movable=1;rotatable=1;deletable=1;editable=1;locked=0;connectable=1;container=0;" parent="CE2OxablWWYP4FsZfU3G-17" vertex="1">
          <mxGeometry x="35" y="10" width="40" height="30" as="geometry" />
        </mxCell>
        <mxCell id="CE2OxablWWYP4FsZfU3G-21" value="32" style="text;html=1;align=center;verticalAlign=middle;resizable=1;points=[];autosize=1;strokeColor=none;fillColor=none;labelBackgroundColor=none;fontStyle=1;fontSize=12;movable=1;rotatable=1;deletable=1;editable=1;locked=0;connectable=1;container=0;" parent="CE2OxablWWYP4FsZfU3G-17" vertex="1">
          <mxGeometry y="10" width="40" height="30" as="geometry" />
        </mxCell>
        <mxCell id="CE2OxablWWYP4FsZfU3G-23" style="edgeStyle=none;curved=1;html=1;startSize=10;endFill=1;endSize=10;strokeWidth=2;fontSize=12;fillColor=#f8cecc;strokeColor=#b85450;exitX=0.963;exitY=0.375;exitDx=0;exitDy=0;entryX=0;entryY=1;entryDx=0;entryDy=0;exitPerimeter=0;" parent="1" source="jMTXG-PAdd99zwZk45q6-14" target="CE2OxablWWYP4FsZfU3G-18" edge="1">
          <mxGeometry relative="1" as="geometry">
            <mxPoint x="1030" y="240" as="sourcePoint" />
            <mxPoint x="1112" y="314" as="targetPoint" />
          </mxGeometry>
        </mxCell>
        <mxCell id="CE2OxablWWYP4FsZfU3G-25" value="10" style="text;html=1;resizable=0;points=[];align=center;verticalAlign=middle;labelBackgroundColor=#ffffff;fontSize=20;" parent="1" connectable="0" vertex="1">
          <mxGeometry x="939.9975206770629" y="299.99513521427343" as="geometry">
            <mxPoint x="133" y="-15" as="offset" />
          </mxGeometry>
        </mxCell>
        <mxCell id="CE2OxablWWYP4FsZfU3G-26" value="F" style="text;html=1;strokeColor=none;fillColor=none;align=center;verticalAlign=middle;whiteSpace=wrap;rounded=0;shadow=1;labelBackgroundColor=none;fontSize=20;" parent="1" vertex="1">
          <mxGeometry x="1020.0036363636364" y="240" width="47.272727272727266" height="20" as="geometry" />
        </mxCell>
        <mxCell id="CE2OxablWWYP4FsZfU3G-27" style="edgeStyle=none;curved=1;html=1;startSize=10;endFill=1;endSize=10;strokeWidth=2;fontSize=12;fillColor=#f8cecc;strokeColor=#b85450;exitX=1;exitY=0.725;exitDx=0;exitDy=0;exitPerimeter=0;entryX=0.575;entryY=-0.133;entryDx=0;entryDy=0;entryPerimeter=0;" parent="1" source="CE2OxablWWYP4FsZfU3G-18" target="jMTXG-PAdd99zwZk45q6-43" edge="1">
          <mxGeometry relative="1" as="geometry">
            <mxPoint x="1180" y="280" as="sourcePoint" />
            <mxPoint x="1308" y="290.96000000000004" as="targetPoint" />
          </mxGeometry>
        </mxCell>
        <mxCell id="CE2OxablWWYP4FsZfU3G-28" value="" style="endArrow=none;dashed=1;html=1;rounded=0;strokeWidth=3;entryX=0.063;entryY=0.75;entryDx=0;entryDy=0;exitX=1;exitY=0.5;exitDx=0;exitDy=0;entryPerimeter=0;" parent="1" source="CE2OxablWWYP4FsZfU3G-8" target="jMTXG-PAdd99zwZk45q6-40" edge="1">
          <mxGeometry width="50" height="50" relative="1" as="geometry">
            <mxPoint x="1253" y="428" as="sourcePoint" />
            <mxPoint x="1210" y="536" as="targetPoint" />
          </mxGeometry>
        </mxCell>
        <mxCell id="CE2OxablWWYP4FsZfU3G-29" value="G" style="text;html=1;strokeColor=none;fillColor=none;align=center;verticalAlign=middle;whiteSpace=wrap;rounded=0;shadow=1;labelBackgroundColor=none;fontSize=20;" parent="1" vertex="1">
          <mxGeometry x="1200.0036363636364" y="270" width="47.272727272727266" height="20" as="geometry" />
        </mxCell>
        <mxCell id="CE2OxablWWYP4FsZfU3G-30" value="7" style="text;html=1;resizable=0;points=[];align=center;verticalAlign=middle;labelBackgroundColor=#ffffff;fontSize=20;" parent="1" connectable="0" vertex="1">
          <mxGeometry x="1129.9975206770628" y="269.99513521427343" as="geometry">
            <mxPoint x="133" y="-15" as="offset" />
          </mxGeometry>
        </mxCell>
      </root>
    </mxGraphModel>
  </diagram>
</mxfile>
